<svg width="88" height="112" viewBox="0 0 88 112" fill="none" xmlns="http://www.w3.org/2000/svg">
<path d="M79.0838 15.2984C78.8489 12.0249 78.6401 9.99486 78.4998 8.84027C78.4084 8.09803 77.7852 7.53342 77.0184 7.49536C74.3102 7.36213 67.7517 6.95295 61.0008 5.91254C51.2707 4.41538 48.0307 0.120535 44.2848 0C40.5423 0.123707 37.3022 4.41538 27.5722 5.91254C20.8212 6.94978 14.2627 7.35896 11.5545 7.49536C10.7877 7.53342 10.1645 8.1012 10.0731 8.84027C9.93283 9.99486 9.72075 12.0249 9.48908 15.2984C8.95397 22.8033 9.63917 26.4732 9.79579 27.8118C11.4827 42.2189 19.3202 53.1146 20.2175 54.3294C22.0317 56.7972 25.8559 61.5552 32.0195 66.1006C37.7655 70.3383 42.1411 72.305 44.2881 72.2384C46.4351 72.305 50.8074 70.3383 56.5567 66.1006C62.717 61.5552 66.5412 56.7972 68.3586 54.3294C69.2559 53.1114 77.0935 42.2189 78.7804 27.8118C78.937 26.4732 79.6222 22.8033 79.0871 15.2984H79.0838Z" fill="#127398"/>
<path d="M73.7306 18.5011C73.5318 15.7312 73.3551 14.0135 73.2364 13.0365C73.159 12.4085 72.6317 11.9307 71.9829 11.8985C69.6913 11.7858 64.1419 11.4395 58.4295 10.5592C50.1964 9.29236 47.4548 5.65827 44.2852 5.55627C41.1185 5.66095 38.3769 9.29236 30.1438 10.5592C24.4314 11.4369 18.8819 11.7831 16.5904 11.8985C15.9415 11.9307 15.4142 12.4111 15.3369 13.0365C15.2182 14.0135 15.0387 15.7312 14.8427 18.5011C14.3899 24.8513 14.9697 27.9567 15.1022 29.0893C16.5296 41.2799 23.1614 50.4994 23.9206 51.5273C25.4557 53.6155 28.6915 57.6414 33.9069 61.4875C38.7689 65.0733 42.4713 66.7374 44.288 66.681C46.1047 66.7374 49.8044 65.0733 54.6691 61.4875C59.8817 57.6414 63.1176 53.6155 64.6554 51.5273C65.4146 50.4967 72.0464 41.2799 73.4738 29.0893C73.6063 27.9567 74.1861 24.8513 73.7333 18.5011H73.7306Z" fill="white"/>
<path fill-rule="evenodd" clip-rule="evenodd" d="M71.7786 19.2424L71.7357 18.6442C71.5746 16.3992 71.429 14.8641 71.319 13.8669C68.7331 13.7273 63.5079 13.3654 58.1253 12.5359M71.7786 19.2424C72.0981 24.313 71.7253 27.0762 71.546 28.4053C71.5225 28.5799 71.5022 28.7297 71.4874 28.8567C70.1218 40.5194 63.7452 49.3908 63.0452 50.3411L63.045 50.3413C61.5779 52.3334 58.4784 56.1914 53.4817 59.8782C51.1184 61.6201 49.0824 62.8618 47.4598 63.652C45.7582 64.4807 44.7481 64.6943 44.35 64.682L44.288 64.6801L44.226 64.682C43.8278 64.6943 42.8169 64.4806 41.115 63.6519C39.492 62.8617 37.4559 61.6199 35.094 59.8779L35.094 59.8779C30.0946 56.1911 26.9954 52.3333 25.532 50.3427L25.5294 50.3391C24.8313 49.394 18.4543 40.5198 17.0886 28.8567C17.0738 28.7296 17.0536 28.5799 17.03 28.4053C16.8438 27.0248 16.4488 24.097 16.8376 18.6433L16.8377 18.6423C16.9965 16.399 17.1434 14.8642 17.2541 13.8663C19.8375 13.7248 25.0637 13.3632 30.4475 12.536L30.4479 12.5359C34.8455 11.8593 37.7993 10.5409 40.025 9.40257C40.4358 9.1925 40.7969 9.00226 41.1266 8.8286C41.7253 8.51324 42.2202 8.25255 42.72 8.027C43.4083 7.71644 43.884 7.58297 44.2861 7.55827C44.6885 7.58264 45.1644 7.71582 45.8526 8.02612C46.3534 8.25189 46.8495 8.5132 47.4499 8.82946C47.7786 9.00261 48.1386 9.19223 48.5478 9.40151C50.7736 10.54 53.7273 11.8591 58.1249 12.5359M44.2852 5.55627C45.6063 5.59878 46.8531 6.25491 48.4541 7.09748C50.6942 8.27642 53.628 9.82038 58.4295 10.5592C64.1419 11.4395 69.6913 11.7858 71.9829 11.8985C72.6317 11.9307 73.159 12.4085 73.2364 13.0365C73.3551 14.0135 73.5318 15.7312 73.7306 18.5011H73.7333C74.1363 24.1528 73.7214 27.2342 73.5318 28.6422C73.5084 28.8163 73.4884 28.9647 73.4738 29.0893C72.0464 41.2799 65.4146 50.4967 64.6554 51.5273C63.1176 53.6155 59.8817 57.6414 54.6691 61.4875C49.8044 65.0733 46.1047 66.7374 44.288 66.681C42.4713 66.7374 38.7689 65.0733 33.9069 61.4875C28.6915 57.6414 25.4557 53.6155 23.9206 51.5273C23.1614 50.4994 16.5296 41.2799 15.1022 29.0893C15.0876 28.9647 15.0676 28.8163 15.0442 28.6422C14.8546 27.2342 14.4397 24.1528 14.8427 18.5011C15.0387 15.7312 15.2182 14.0135 15.3369 13.0365C15.4142 12.4111 15.9415 11.9307 16.5904 11.8985C18.8819 11.7831 24.4314 11.4369 30.1438 10.5592C34.9479 9.81997 37.8823 8.27562 40.1224 7.09666C41.7212 6.2552 42.9663 5.59987 44.2852 5.55627Z" fill="#127398"/>
<path d="M15.6341 32.4337H44.1594V5.55859C41.0351 5.73305 38.2696 9.29943 30.1292 10.5492C24.4217 11.4272 18.8791 11.7733 16.5873 11.8877C15.94 11.9192 15.4134 12.3996 15.3369 13.026C15.2163 14.0041 15.0398 15.7172 14.8427 18.4857C14.3896 24.8291 14.9692 27.9321 15.1016 29.0647C15.2369 30.2172 15.4193 31.3412 15.637 32.4337H15.6341Z" fill="#127398"/>
<path fill-rule="evenodd" clip-rule="evenodd" d="M44.1594 32.4337V5.55859C43.4949 5.5957 42.8467 5.78624 42.1594 6.0753C41.5207 6.34397 40.8483 6.69777 40.0979 7.09257C37.8601 8.27006 34.9289 9.81233 30.1292 10.5492C24.4217 11.4272 18.8791 11.7733 16.5873 11.8877C15.94 11.9192 15.4134 12.3996 15.3369 13.026C15.2163 14.0041 15.0398 15.7172 14.8427 18.4857C14.4396 24.1299 14.854 27.2087 15.0435 28.6167C15.067 28.7911 15.087 28.9398 15.1016 29.0647C15.2363 30.212 15.4177 31.3311 15.6341 32.4189C15.6351 32.4239 15.636 32.4288 15.637 32.4337H44.1594ZM17.3098 30.4337H42.1594V8.27789C41.8275 8.44237 41.4852 8.62267 41.1006 8.82534C40.7538 9.00802 40.3726 9.20888 39.9332 9.43271C37.7161 10.5623 34.781 11.8584 30.4333 12.526M17.3098 30.4337C17.2258 29.906 17.1514 29.3722 17.088 28.8325ZM16.8376 18.6281C16.4486 24.0742 16.8431 26.9992 17.0293 28.3799C17.0528 28.5544 17.073 28.7043 17.0879 28.8314M16.8376 18.6281C16.9975 16.3821 17.1428 14.8503 17.2535 13.8556ZM17.2535 13.8556C19.8381 13.7147 25.0565 13.3531 30.4333 12.526Z" fill="#127398"/>
<path d="M44.3529 32.4349H72.8783C73.096 31.3395 73.2784 30.2155 73.4138 29.063C73.5461 27.9304 74.1257 24.8274 73.6727 18.4839C73.4755 15.7155 73.2961 14.0024 73.1784 13.0243C73.1019 12.3979 72.5753 11.9175 71.9281 11.886C69.6392 11.7716 64.0936 11.4255 58.3862 10.5475C50.2457 9.29486 47.4803 5.72848 44.3559 5.55688V32.4349H44.3529Z" fill="white"/>
<path fill-rule="evenodd" clip-rule="evenodd" d="M71.6777 18.626C71.5181 16.3848 71.371 14.8527 71.2607 13.8538C68.6777 13.7129 63.458 13.3513 58.0821 12.5243C53.7342 11.8552 50.799 10.5583 48.5821 9.42886C48.1447 9.206 47.7647 9.00587 47.419 8.8238C47.0326 8.62027 46.689 8.4393 46.3559 8.27437V30.4349H71.2052C71.2894 29.9056 71.3639 29.3706 71.4274 28.8297C71.4423 28.7026 71.4625 28.5527 71.486 28.3781C71.6722 26.9975 72.0667 24.072 71.6777 18.626ZM73.4138 29.063C73.2784 30.2155 73.096 31.3395 72.8783 32.4349H44.3559V5.55688C45.0204 5.59338 45.6687 5.78344 46.3559 6.07215C46.9958 6.34099 47.6695 6.69537 48.4215 7.09094C50.6588 8.26785 53.5893 9.80938 58.3862 10.5475C64.0936 11.4255 69.6392 11.7716 71.9281 11.886C72.5753 11.9175 73.1019 12.3979 73.1784 13.0243C73.2961 14.0024 73.4755 15.7155 73.6727 18.4839C74.0758 24.1282 73.6614 27.207 73.4718 28.615C73.4484 28.7894 73.4283 28.9381 73.4138 29.063Z" fill="#127398"/>
<path d="M44.3529 32.6252V66.6188C46.1976 66.6188 49.8485 64.9571 54.6263 61.4308C59.8365 57.5898 63.0668 53.5659 64.6025 51.481C65.2851 50.5543 70.716 43.0011 72.8371 32.6223H44.3529V32.6252Z" fill="#127398"/>
<path fill-rule="evenodd" clip-rule="evenodd" d="M53.4386 59.8216L53.4395 59.8209C58.4329 56.1399 61.5267 52.2845 62.9922 50.2948C63.5606 49.5231 68.0133 43.3326 70.315 34.6223H46.3529V64.0738C46.6966 63.9339 47.081 63.7621 47.5069 63.5525C49.1136 62.7622 51.1181 61.5343 53.4386 59.8216ZM46.3529 66.2097C45.5502 66.484 44.8783 66.6188 44.3529 66.6188V32.6223H72.8371C72.6983 33.3014 72.5454 33.9685 72.3805 34.6223C70.0256 43.9612 65.2404 50.615 64.6025 51.481C63.0668 53.5659 59.8365 57.5898 54.6263 61.4308C51.2093 63.9528 48.3687 65.521 46.3529 66.2097Z" fill="#127398"/>
<path d="M44.159 32.6256H15.6748C17.796 43.0044 23.2268 50.5576 23.9094 51.4842C25.4451 53.5692 28.6754 57.5903 33.8856 61.4341C38.6634 64.9576 42.3144 66.6192 44.159 66.6221V32.6256Z" fill="white"/>
<path fill-rule="evenodd" clip-rule="evenodd" d="M15.6748 32.6256C15.8136 33.3047 15.9666 33.9718 16.1314 34.6256C18.4864 43.9645 23.2715 50.6182 23.9094 51.4842C25.4451 53.5692 28.6754 57.5903 33.8856 61.4341C37.3026 63.954 40.1433 65.5217 42.159 66.2113C42.9617 66.4859 43.6336 66.6213 44.159 66.6221V32.6256H15.6748ZM18.197 34.6256C20.4987 43.3359 24.9513 49.5264 25.5197 50.2981C26.9849 52.2873 30.0787 56.1402 35.0727 59.8245M18.197 34.6256H42.159V64.0751C41.8152 63.9351 41.4308 63.7632 41.005 63.5537C39.398 62.7632 37.3931 61.5357 35.0727 59.8245" fill="#127398"/>
<path d="M10.0632 107.274H5.71084V110.931H10.5445L10.3527 111.859H4.28793V102.315H10.2725V103.243H5.70735V106.349H10.0598V107.278L10.0632 107.274Z" fill="#127398"/>
<path d="M12.135 111.859V102.315H13.8997C17.5058 108.923 18.0045 109.822 18.1754 110.229H18.1928C18.0987 108.951 18.0778 107.515 18.0778 105.957V102.315H19.4204V111.859H17.7325C13.9939 104.913 13.5335 104.042 13.3801 103.664H13.3626C13.4568 104.859 13.4777 106.421 13.4777 108.134V111.859H12.135Z" fill="#127398"/>
<path d="M28.7846 109.215C28.7253 109.762 28.401 111.997 25.2378 111.997C21.7677 111.997 21.4992 109.312 21.4992 107.019C21.4992 104.237 22.514 102.167 25.3912 102.167C28.537 102.167 28.7079 104.32 28.7462 104.91H27.3094C27.271 104.586 27.1943 103.11 25.3738 103.11C23.3231 103.11 22.9953 105.162 22.9953 107.019C22.9953 109.031 23.3022 111.068 25.2761 111.068C27.0199 111.068 27.271 109.69 27.3268 109.211H28.7846V109.215Z" fill="#127398"/>
<path d="M32.0453 107.458V111.859H30.6085V102.315H34.0227C36.2094 102.315 37.3394 103.214 37.3394 104.776C37.3394 106.209 36.4012 106.813 35.5956 107.011C36.8023 107.321 37.1859 108.109 37.1859 109.444V109.822C37.1859 110.708 37.2243 111.341 37.3777 111.859H35.9409C35.7665 111.424 35.7491 110.582 35.7491 109.794V109.47C35.7491 108.12 35.3864 107.458 33.6217 107.458H32.0488H32.0453ZM32.0453 106.572H33.6949C35.2852 106.572 35.8816 105.91 35.8816 104.802C35.8816 103.844 35.2852 103.2 33.8484 103.2H32.0453V106.572Z" fill="#127398"/>
<path d="M41.5766 111.859V108.217C41.5766 108.12 41.5382 108.034 41.4999 107.98L38.1832 102.315H39.7945C40.6768 103.931 41.9428 106.166 42.3264 107.037C42.7868 106.108 44.0527 103.844 44.8967 102.315H46.4103L43.0727 107.98C43.0344 108.037 42.996 108.12 42.996 108.232V111.859H41.5766Z" fill="#127398"/>
<path d="M47.4074 102.312H50.7624C52.813 102.312 54.2324 103.255 54.2324 104.968C54.2324 106.681 52.949 107.725 50.5706 107.725H48.8442V111.857H47.4074V102.312ZM48.8442 106.84H50.4171C51.969 106.84 52.7747 106.235 52.7747 104.957C52.7747 103.903 52.0283 103.201 50.5706 103.201H48.8442V106.843V106.84Z" fill="#127398"/>
<path d="M57.9779 103.24H55.0833V102.312H62.3129V103.24H59.4183V111.857H57.9814V103.24H57.9779Z" fill="#127398"/>
<path d="M65.1488 102.312V111.857H63.7119V102.312H65.1488Z" fill="#127398"/>
<path d="M74.9134 106.994C74.9134 110.254 73.8602 112 71.0388 112C68.2174 112 67.2409 110.312 67.2409 107.022C67.2409 103.733 68.5452 102.171 71.1155 102.171C73.6858 102.171 74.9134 103.758 74.9134 106.994ZM68.7196 106.994C68.7196 109.722 69.4659 111.086 71.0981 111.086C72.7302 111.086 73.4382 109.75 73.4382 107.008C73.4382 104.265 72.6919 103.085 71.0807 103.085C69.4694 103.085 68.7231 104.391 68.7231 106.994H68.7196Z" fill="#127398"/>
<path d="M77.0023 111.859V102.315H78.767C82.373 108.923 82.8718 109.822 83.0426 110.229H83.0601C82.9659 108.951 82.945 107.515 82.945 105.957V102.315H84.2877V111.859H82.5997C78.8611 104.913 78.4008 104.042 78.2473 103.664H78.2264C78.3206 104.859 78.3415 106.421 78.3415 108.134V111.859H76.9988H77.0023Z" fill="#127398"/>
<path d="M82.0908 89.5498C81.264 89.5498 80.4958 89.4033 79.7861 89.1104C79.083 88.8109 78.4645 88.3617 77.9307 87.7627C77.4033 87.1637 76.9899 86.4118 76.6904 85.5068C76.3975 84.5954 76.251 83.5244 76.251 82.2939V82.2744C76.251 80.7119 76.4886 79.3708 76.9639 78.251C77.4391 77.1312 78.113 76.2751 78.9854 75.6826C79.8577 75.0837 80.8994 74.7842 82.1104 74.7842C83.0153 74.7842 83.8324 74.9502 84.5615 75.2822C85.2907 75.6077 85.8929 76.057 86.3682 76.6299C86.8434 77.2028 87.1527 77.8571 87.2959 78.5928L87.3154 78.6807H84.4248L84.3857 78.5928C84.2751 78.2998 84.1123 78.0459 83.8975 77.8311C83.6891 77.6097 83.4352 77.4372 83.1357 77.3135C82.8363 77.1898 82.4945 77.1279 82.1104 77.1279C81.4333 77.1279 80.8734 77.3298 80.4307 77.7334C79.9945 78.137 79.6657 78.6839 79.4443 79.374C79.2295 80.0576 79.1025 80.8226 79.0635 81.6689C79.057 81.7666 79.0537 81.8643 79.0537 81.9619C79.0537 82.0531 79.0537 82.1507 79.0537 82.2549L79.4932 84.6084C79.4932 85.0967 79.6071 85.5394 79.835 85.9365C80.0628 86.3271 80.3721 86.6364 80.7627 86.8643C81.1533 87.0921 81.5863 87.2061 82.0615 87.2061C82.5433 87.2061 82.9762 87.0954 83.3604 86.874C83.751 86.6462 84.0602 86.3402 84.2881 85.9561C84.5225 85.5654 84.6396 85.1325 84.6396 84.6572V84.6377C84.6396 84.1494 84.529 83.7165 84.3076 83.3389C84.0863 82.9548 83.7835 82.6553 83.3994 82.4404C83.0153 82.2191 82.5791 82.1084 82.0908 82.1084C81.6025 82.1084 81.1631 82.2158 80.7725 82.4307C80.3818 82.639 80.0693 82.932 79.835 83.3096C79.6071 83.6807 79.4932 84.1071 79.4932 84.5889V84.6084H78.9072V82.04H79.2197C79.3955 81.6559 79.6462 81.3044 79.9717 80.9854C80.3037 80.6663 80.7139 80.4124 81.2021 80.2236C81.6904 80.0283 82.2568 79.9307 82.9014 79.9307C83.8193 79.9307 84.6201 80.1292 85.3037 80.5264C85.9938 80.9235 86.5309 81.4704 86.915 82.167C87.3057 82.8571 87.501 83.6481 87.501 84.54V84.5596C87.501 85.5166 87.2699 86.3727 86.8076 87.1279C86.3454 87.8766 85.7074 88.4691 84.8936 88.9053C84.0798 89.335 83.1455 89.5498 82.0908 89.5498Z" fill="#127398"/>
<path d="M68.7314 89.54C67.7288 89.54 66.8467 89.3577 66.085 88.9932C65.3232 88.6286 64.721 88.1338 64.2783 87.5088C63.8421 86.8838 63.5947 86.1807 63.5361 85.3994L63.5264 85.2529H66.2119L66.2314 85.3213C66.3031 85.6729 66.4495 85.9919 66.6709 86.2783C66.8988 86.5583 67.1885 86.7829 67.54 86.9521C67.8981 87.1149 68.2985 87.1963 68.7412 87.1963C69.249 87.1963 69.695 87.0856 70.0791 86.8643C70.4697 86.6429 70.7757 86.3402 70.9971 85.9561C71.2184 85.5654 71.3291 85.1195 71.3291 84.6182V84.5986C71.3291 84.0973 71.2184 83.6579 70.9971 83.2803C70.7757 82.8962 70.4697 82.5967 70.0791 82.3818C69.695 82.167 69.2523 82.0596 68.751 82.0596C68.3994 82.0596 68.0706 82.1117 67.7646 82.2158C67.4652 82.3135 67.195 82.46 66.9541 82.6553C66.8239 82.766 66.7002 82.8864 66.583 83.0166C66.4723 83.1468 66.3779 83.29 66.2998 83.4463H63.7607L64.415 75.1162H73.2627V77.46H66.7197L66.3682 81.4639H66.5146C66.8011 80.9886 67.208 80.6143 67.7354 80.3408C68.2692 80.0674 68.8779 79.9307 69.5615 79.9307C70.4469 79.9307 71.2314 80.1292 71.915 80.5264C72.5986 80.9235 73.1357 81.4704 73.5264 82.167C73.917 82.8571 74.1123 83.6514 74.1123 84.5498V84.5693C74.1123 85.5524 73.8844 86.4183 73.4287 87.167C72.973 87.9157 72.3415 88.4984 71.5342 88.915C70.7269 89.3317 69.7926 89.54 68.7314 89.54Z" fill="#127398"/>
<path d="M50.7041 89.208V87.2158L55.3428 82.6943C55.9938 82.0693 56.4951 81.555 56.8467 81.1514C57.1982 80.7477 57.4424 80.3929 57.5791 80.0869C57.7158 79.7809 57.7842 79.4619 57.7842 79.1299V79.1006C57.7842 78.7035 57.6963 78.3551 57.5205 78.0557C57.3447 77.7497 57.0941 77.512 56.7686 77.3428C56.4495 77.167 56.0687 77.0791 55.626 77.0791C55.1637 77.0791 54.7536 77.1768 54.3955 77.3721C54.0439 77.5609 53.7673 77.8245 53.5654 78.1631C53.3701 78.4951 53.2725 78.8825 53.2725 79.3252L53.2627 79.3838H50.5381L50.5283 79.335C50.5348 78.4365 50.7562 77.6455 51.1924 76.9619C51.6351 76.2783 52.2471 75.7445 53.0283 75.3604C53.8096 74.9762 54.708 74.7842 55.7236 74.7842C56.7002 74.7842 57.5596 74.9567 58.3018 75.3018C59.0439 75.6468 59.6234 76.1286 60.04 76.7471C60.4632 77.359 60.6748 78.0687 60.6748 78.876V78.9053C60.6748 79.4456 60.5706 79.9697 60.3623 80.4775C60.1605 80.9788 59.8122 81.5225 59.3174 82.1084C58.8291 82.6878 58.1618 83.3682 57.3154 84.1494L53.7607 87.46L54.6299 86.0049V87.46L53.7607 86.8447H60.8799V89.208H50.7041Z" fill="#127398"/>
<path d="M41.3975 84.7842V82.2354H47.8525V84.7842H41.3975Z" fill="#127398"/>
<path d="M33.2334 89.54C32.1071 89.54 31.1305 89.374 30.3037 89.042C29.4769 88.7035 28.8258 88.2282 28.3506 87.6162C27.8818 86.9977 27.6182 86.2686 27.5596 85.4287L27.5498 85.2725H30.3818L30.3916 85.3701C30.4372 85.7217 30.5869 86.0309 30.8408 86.2979C31.0947 86.5648 31.4333 86.7731 31.8564 86.9229C32.2796 87.0726 32.7614 87.1475 33.3018 87.1475C33.8356 87.1475 34.3011 87.0693 34.6982 86.9131C35.0954 86.7568 35.4046 86.542 35.626 86.2686C35.8473 85.9886 35.958 85.6696 35.958 85.3115V85.3018C35.958 84.8395 35.7692 84.4717 35.3916 84.1982C35.0205 83.9183 34.3988 83.6872 33.5264 83.5049L32.0322 83.2021C30.5869 82.9092 29.5257 82.4242 28.8486 81.7471C28.1781 81.0635 27.8428 80.1878 27.8428 79.1201V79.1104C27.8493 78.2445 28.0804 77.486 28.5361 76.835C28.9984 76.1839 29.6331 75.6794 30.4404 75.3213C31.2477 74.9632 32.1722 74.7842 33.2139 74.7842C34.3076 74.7842 35.2484 74.96 36.0361 75.3115C36.8239 75.6631 37.4359 76.1481 37.8721 76.7666C38.3148 77.3786 38.5654 78.085 38.624 78.8857L38.6338 79.0127H35.8604L35.8408 78.8955C35.7887 78.5505 35.6488 78.251 35.4209 77.9971C35.193 77.7432 34.8903 77.5446 34.5127 77.4014C34.1416 77.2516 33.7087 77.1768 33.2139 77.1768C32.7256 77.1768 32.2992 77.2484 31.9346 77.3916C31.5765 77.5348 31.2965 77.7367 31.0947 77.9971C30.8929 78.251 30.792 78.5537 30.792 78.9053V78.915C30.792 79.3643 30.9775 79.7321 31.3486 80.0186C31.7197 80.305 32.3187 80.5329 33.1455 80.7021L34.6299 81.0049C36.1208 81.3044 37.2048 81.7731 37.8818 82.4111C38.5654 83.0426 38.9072 83.9085 38.9072 85.0088V85.0186C38.9072 85.943 38.6794 86.7438 38.2236 87.4209C37.7679 88.098 37.1136 88.6221 36.2607 88.9932C35.4144 89.3577 34.4053 89.54 33.2334 89.54Z" fill="#127398"/>
<path d="M15.958 89.208V75.1162H25.2939V77.5479H18.9072V80.9463H24.9326V83.2217H18.9072V86.7764H25.2939V89.208H15.958Z" fill="#127398"/>
<path d="M0.499023 89.208L5.40137 75.1162H7.93066V77.9092H7.06152L3.60449 89.208H0.499023ZM3.12598 85.79L3.84863 83.583H10.3818L11.1045 85.79H3.12598ZM10.6748 89.208L7.20801 77.9092V75.1162H8.86816L13.7705 89.208H10.6748Z" fill="#127398"/>
</svg>
