<svg width="390" height="446" viewBox="0 0 390 446" fill="none" xmlns="http://www.w3.org/2000/svg">
<g clip-path="url(#clip0_5859_12492)">
<path d="M250.974 3.02075C251.033 3.05216 251.089 3.08866 251.144 3.12714C251.089 3.08814 251.033 3.05257 250.974 3.02075Z" fill="#45DA6E"/>
<path d="M251.178 3.14966C251.242 3.19697 251.302 3.24846 251.359 3.30537C251.302 3.24846 251.242 3.19697 251.178 3.14966Z" fill="#45DA6E"/>
<path d="M255.615 19.1875C255.594 19.2653 255.567 19.3403 255.535 19.413C255.567 19.3404 255.594 19.2653 255.615 19.1875Z" fill="#45DA6E"/>
<path d="M247.22 18.7584C247.153 18.7763 247.086 18.7891 247.019 18.7983C247.086 18.7891 247.153 18.7764 247.22 18.7584Z" fill="#45DA6E"/>
<path d="M246.224 18.7138C246.224 18.7138 246.22 18.7122 246.217 18.7119C246.219 18.7127 246.221 18.7135 246.224 18.7138Z" fill="#45DA6E"/>
<path d="M243.202 8.83183C243.208 8.81884 243.215 8.80675 243.221 8.79376C243.215 8.80675 243.208 8.81884 243.202 8.83183Z" fill="#45DA6E"/>
<path d="M245.822 18.5045C245.81 18.4961 245.798 18.4893 245.787 18.481C245.798 18.4893 245.81 18.4962 245.822 18.5045Z" fill="#45DA6E"/>
<path d="M246.017 18.6238C246.009 18.6197 246.001 18.6166 245.993 18.6121C246.001 18.6162 246.009 18.6197 246.017 18.6238Z" fill="#45DA6E"/>
<path d="M246.65 18.8083C246.645 18.8082 246.641 18.8079 246.637 18.8074C246.641 18.808 246.645 18.8077 246.65 18.8083Z" fill="#45DA6E"/>
<path d="M252.165 17.324C252.162 17.3261 252.159 17.3278 252.156 17.3299C252.159 17.3278 252.162 17.3261 252.165 17.324Z" fill="#45DA6E"/>
<path d="M246.886 18.8099C246.866 18.811 246.846 18.8134 246.825 18.814C246.846 18.8138 246.866 18.811 246.886 18.8099Z" fill="#45DA6E"/>
<path d="M252.006 17.4251C251.989 17.4344 251.971 17.4424 251.954 17.451C251.971 17.442 251.989 17.4346 252.006 17.4251Z" fill="#45DA6E"/>
<path d="M251.832 17.5093C251.769 17.5345 251.706 17.5573 251.639 17.5752C251.706 17.5573 251.77 17.5349 251.832 17.5093Z" fill="#45DA6E"/>
<path d="M250.949 3.00922C250.884 2.97514 250.816 2.94564 250.748 2.9209C250.816 2.94564 250.883 2.97566 250.949 3.00922Z" fill="#45DA6E"/>
<path d="M245.427 22.5962L245.43 22.5971C245.43 22.5971 245.428 22.5963 245.427 22.5962Z" fill="#45DA6E"/>
<path d="M255.516 19.4512C255.488 19.5121 255.458 19.5717 255.422 19.6283C255.457 19.5714 255.488 19.5125 255.516 19.4512Z" fill="#45DA6E"/>
<path d="M255.107 20.0017L252.312 17.2068L255.107 20.0017Z" fill="#45DA6E"/>
<path d="M245.201 22.5324C245.212 22.536 245.222 22.5376 245.233 22.5409C245.222 22.5376 245.211 22.5357 245.201 22.532L245.201 22.5324Z" fill="#45DA6E"/>
<path d="M254.045 11.3204C254.035 11.2486 254.021 11.178 254.002 11.1081C253.984 11.0383 253.96 10.9701 253.933 10.9031C253.988 11.0367 254.026 11.1772 254.045 11.3204Z" fill="#45DA6E"/>
<path d="M243.314 8.61792C243.319 8.61051 243.324 8.60341 243.328 8.59601C243.324 8.60341 243.319 8.6101 243.314 8.61792Z" fill="#45DA6E"/>
<path d="M238.554 16.1152C238.342 15.9037 238.195 15.6442 238.121 15.3652C238.046 15.0863 238.044 14.788 238.121 14.4997L240.327 6.26302C240.348 6.1852 240.375 6.11027 240.406 6.03753C240.375 6.11016 240.348 6.1852 240.327 6.26302L238.121 14.4997C237.966 15.0769 238.131 15.6927 238.554 16.1152L244.581 22.145C244.639 22.2019 244.699 22.2534 244.763 22.3007C244.699 22.2535 244.639 22.2019 244.581 22.145L238.554 16.1152Z" fill="#45DA6E"/>
<path d="M243.459 8.41808C243.459 8.41808 243.462 8.41474 243.464 8.41336C243.462 8.41504 243.461 8.41671 243.459 8.41808Z" fill="#45DA6E"/>
<path d="M243.628 8.2443C243.819 8.07417 244.048 7.94457 244.304 7.876L248.721 6.69221C248.977 6.62364 249.239 6.62149 249.49 6.67308L250.513 2.8547C250.591 2.87052 250.666 2.89205 250.741 2.91834C250.425 2.80522 250.079 2.78413 249.744 2.87384L241.509 5.08082C241.175 5.17052 240.885 5.36222 240.668 5.61798C240.72 5.55801 240.775 5.50137 240.834 5.44901L243.628 8.24419L243.628 8.2443Z" fill="#45DA6E"/>
<path d="M255.107 20.0011C255.107 20.0011 255.105 20.0034 255.103 20.0043C255.163 19.9512 255.22 19.8938 255.272 19.8323C255.221 19.8922 255.166 19.9488 255.107 20.0011Z" fill="#45DA6E"/>
<path d="M245.664 22.6271C245.594 22.6223 245.523 22.6144 245.454 22.6008C245.523 22.6139 245.593 22.6228 245.664 22.6271Z" fill="#45DA6E"/>
<path d="M252.482 17.0323C252.482 17.0323 252.479 17.0357 252.478 17.0374C252.479 17.0357 252.481 17.0339 252.482 17.0323Z" fill="#45DA6E"/>
<path d="M245.902 22.6262C245.837 22.6313 245.772 22.6343 245.707 22.6318C245.772 22.6343 245.837 22.6318 245.902 22.6262Z" fill="#45DA6E"/>
<path d="M244.969 22.43C244.91 22.3986 244.854 22.3622 244.799 22.3232C244.854 22.3622 244.91 22.3982 244.969 22.43Z" fill="#45DA6E"/>
<path d="M245.193 22.5314C245.124 22.5067 245.057 22.4767 244.992 22.4431C245.057 22.4771 245.124 22.5067 245.193 22.5314Z" fill="#45DA6E"/>
<path d="M245.427 22.5954C245.35 22.5795 245.275 22.558 245.201 22.532C245.275 22.5584 245.35 22.5795 245.427 22.5954Z" fill="#45DA6E"/>
<path d="M255.088 20.0188C255.035 20.0658 254.977 20.1086 254.917 20.1484C254.977 20.109 255.034 20.0655 255.088 20.0188Z" fill="#45DA6E"/>
<path d="M255.408 19.6507C255.368 19.7124 255.326 19.7719 255.278 19.8277C255.325 19.7716 255.368 19.7129 255.408 19.6507Z" fill="#45DA6E"/>
<path d="M254.433 20.3708C254.513 20.3494 254.589 20.3214 254.664 20.2891C254.59 20.3213 254.513 20.3494 254.433 20.3708Z" fill="#45DA6E"/>
<path d="M254.883 20.1718C254.828 20.2064 254.77 20.2369 254.711 20.2651C254.77 20.2373 254.828 20.2064 254.883 20.1718Z" fill="#45DA6E"/>
<path d="M246.197 22.5764C246.118 22.5977 246.037 22.6118 245.958 22.6208C246.038 22.6117 246.118 22.5976 246.197 22.5764Z" fill="#45DA6E"/>
<path d="M250.119 6.94531C250.131 6.95368 250.144 6.96038 250.155 6.96916C250.144 6.96079 250.131 6.95357 250.119 6.94531Z" fill="#45DA6E"/>
<path d="M252.627 16.8332C252.622 16.8406 252.617 16.8478 252.612 16.8552C252.617 16.8478 252.622 16.8406 252.627 16.8332Z" fill="#45DA6E"/>
<path d="M249.926 6.82764C249.934 6.83174 249.942 6.83521 249.95 6.83931C249.942 6.83521 249.934 6.83174 249.926 6.82764Z" fill="#45DA6E"/>
<path d="M252.74 16.6179C252.734 16.6313 252.727 16.6434 252.721 16.6565C252.727 16.6434 252.734 16.6313 252.74 16.6179Z" fill="#45DA6E"/>
<path d="M240.427 5.9998C240.455 5.93897 240.485 5.87925 240.52 5.82233C240.485 5.87925 240.455 5.93856 240.427 5.9998Z" fill="#45DA6E"/>
<path d="M240.535 5.79943C240.575 5.73769 240.618 5.67817 240.665 5.62239C240.618 5.67858 240.575 5.73728 240.535 5.79943Z" fill="#45DA6E"/>
<path d="M253.715 10.5256C253.805 10.6426 253.878 10.7697 253.932 10.9034C253.877 10.7698 253.804 10.6427 253.715 10.5256Z" fill="#45DA6E"/>
<path d="M249.72 6.73657C249.72 6.73657 249.724 6.73805 249.726 6.73884C249.724 6.73805 249.722 6.73736 249.72 6.73657Z" fill="#45DA6E"/>
<path d="M245.429 22.5956L246.451 18.7777C246.374 18.7619 246.298 18.7405 246.223 18.7138C246.221 18.713 246.219 18.7122 246.217 18.7119C246.148 18.6873 246.081 18.6569 246.016 18.6233C246.008 18.6192 246 18.616 245.992 18.6115C245.934 18.5801 245.877 18.5437 245.822 18.5047C245.811 18.4964 245.798 18.4896 245.787 18.4812C245.723 18.434 245.663 18.3824 245.606 18.3255L242.372 15.091C242.161 14.8799 242.014 14.6203 241.939 14.3414L238.122 15.3645C238.197 15.6434 238.344 15.903 238.555 16.1141L244.583 22.1439C244.64 22.2008 244.7 22.2524 244.764 22.2996C244.775 22.3079 244.788 22.3147 244.799 22.3231C244.854 22.3617 244.911 22.3981 244.969 22.4299C244.977 22.434 244.985 22.4375 244.993 22.4416C245.058 22.4751 245.125 22.5052 245.194 22.5299C245.196 22.5306 245.198 22.5314 245.201 22.5321C245.211 22.5358 245.223 22.5377 245.233 22.541C245.297 22.5625 245.362 22.5816 245.429 22.5956Z" fill="#45DA6E"/>
<path d="M238.122 14.5004C238.044 14.7888 238.047 15.0871 238.121 15.366L241.939 14.343C241.864 14.064 241.862 13.7657 241.939 13.4774L243.122 9.05899C243.143 8.98117 243.17 8.90624 243.201 8.8335C243.207 8.82051 243.214 8.80853 243.22 8.79543C243.249 8.7346 243.279 8.67446 243.314 8.61796C243.319 8.61056 243.324 8.60346 243.328 8.59606C243.368 8.53432 243.411 8.47438 243.459 8.4185C243.46 8.41683 243.461 8.41515 243.463 8.41378C243.514 8.35381 243.57 8.29717 243.629 8.2444L240.834 5.44962C240.775 5.50199 240.72 5.55863 240.669 5.6186C240.667 5.62038 240.666 5.62205 240.664 5.62384C240.617 5.67961 240.574 5.73914 240.534 5.80088C240.529 5.80828 240.524 5.81549 240.519 5.82289C240.484 5.87939 240.453 5.93912 240.425 6.00035C240.42 6.01334 240.412 6.02543 240.406 6.03843C240.375 6.11117 240.348 6.18609 240.327 6.26392L238.122 14.5004Z" fill="#45DA6E"/>
<path d="M254.002 11.1085C254.021 11.1783 254.035 11.2489 254.045 11.3208C254.073 11.5359 254.06 11.7578 254.002 11.9741L252.819 16.3924C252.798 16.4702 252.771 16.5452 252.739 16.6179C252.734 16.6309 252.727 16.6434 252.72 16.6565C252.692 16.7173 252.662 16.777 252.626 16.8336C252.622 16.841 252.616 16.8482 252.612 16.8556C252.572 16.9173 252.529 16.9768 252.482 17.033C252.481 17.0347 252.479 17.0365 252.477 17.0382C252.426 17.0981 252.371 17.1548 252.312 17.2075L255.106 20.0024C255.165 19.9498 255.221 19.8938 255.272 19.8335C255.273 19.8317 255.275 19.83 255.276 19.8282C255.275 19.83 255.273 19.8317 255.272 19.8335C255.22 19.8934 255.166 19.9499 255.107 20.0023C255.166 19.9499 255.221 19.8933 255.272 19.8335C255.273 19.8317 255.275 19.83 255.276 19.8282C255.324 19.7724 255.367 19.7129 255.406 19.6512C255.411 19.6438 255.417 19.6366 255.421 19.6292C255.456 19.5727 255.487 19.513 255.515 19.4521C255.521 19.439 255.529 19.4269 255.534 19.4135C255.565 19.3409 255.592 19.2658 255.613 19.188L257.82 10.9514C257.877 10.7351 257.891 10.5132 257.862 10.2981C257.852 10.2263 257.838 10.1556 257.82 10.0858L254.002 11.1089L254.002 11.1085Z" fill="#45DA6E"/>
<path d="M250.742 2.91703C250.668 2.89074 250.592 2.86922 250.515 2.85339L249.492 6.67177C249.569 6.68759 249.645 6.70901 249.72 6.73571C249.721 6.7365 249.724 6.73718 249.726 6.73797C249.795 6.76271 249.862 6.79274 249.927 6.82671C249.935 6.83081 249.943 6.83428 249.951 6.83838C250.009 6.86978 250.065 6.90629 250.121 6.94477C250.132 6.95302 250.145 6.95983 250.156 6.96861C250.22 7.01593 250.281 7.06741 250.338 7.12432L250.952 7.73861L253.292 5.91914L253.036 9.82303L253.571 10.3588C253.624 10.4115 253.673 10.4676 253.718 10.5256C253.807 10.6425 253.88 10.7696 253.935 10.9033C253.962 10.9703 253.985 11.0385 254.004 11.1084L257.821 10.0853C257.765 9.87621 257.669 9.67802 257.535 9.50253C257.49 9.44407 257.441 9.38846 257.389 9.33571L251.36 3.30523C251.303 3.24832 251.243 3.19673 251.179 3.14952C251.167 3.14115 251.155 3.13394 251.143 3.12568C251.088 3.08709 251.032 3.05059 250.973 3.01929C250.965 3.01519 250.957 3.01172 250.949 3.00762C250.884 2.97406 250.817 2.94392 250.748 2.9193C250.746 2.91862 250.744 2.91782 250.742 2.91714L250.742 2.91703Z" fill="#45DA6E"/>
<path d="M252.312 17.2064C252.265 17.2481 252.216 17.2877 252.164 17.3244C252.161 17.3265 252.158 17.3282 252.155 17.3303C252.107 17.3639 252.057 17.3953 252.006 17.4241C251.989 17.4335 251.971 17.4414 251.953 17.4501C251.913 17.4706 251.873 17.491 251.831 17.5085C251.768 17.5341 251.704 17.5565 251.638 17.5743L247.219 18.7584C247.153 18.7764 247.086 18.7891 247.018 18.7983C246.974 18.8045 246.93 18.8066 246.885 18.8088C246.865 18.8099 246.844 18.8123 246.824 18.8128C246.766 18.8135 246.708 18.8115 246.65 18.8064C246.645 18.8063 246.641 18.806 246.637 18.8055C246.574 18.7993 246.512 18.7905 246.451 18.7778L246.45 18.778L245.427 22.5958C245.427 22.5958 245.43 22.5965 245.431 22.5967C245.438 22.5982 245.446 22.5998 245.453 22.6013C245.523 22.6148 245.593 22.6228 245.664 22.6276C245.678 22.6286 245.693 22.63 245.707 22.6304C245.772 22.6328 245.837 22.6304 245.903 22.6248C245.921 22.6234 245.938 22.6236 245.957 22.6213C246.037 22.6121 246.117 22.5981 246.196 22.5768L254.431 20.3697C254.511 20.3484 254.588 20.3204 254.662 20.2881C254.679 20.281 254.694 20.2721 254.71 20.2643C254.769 20.236 254.827 20.2054 254.882 20.1709C254.895 20.1632 254.906 20.1554 254.918 20.1474C254.977 20.1076 255.035 20.0648 255.089 20.0178C255.094 20.0134 255.099 20.0089 255.104 20.0045C255.105 20.0033 255.106 20.0022 255.107 20.0014L252.313 17.2065L252.312 17.2064Z" fill="#45DA6E"/>
<path d="M255.108 20.0021C255.167 19.9498 255.222 19.8931 255.273 19.8333C255.222 19.8935 255.166 19.9495 255.107 20.0022L255.108 20.0021Z" fill="#45DA6E"/>
<path d="M245.428 22.5953C245.361 22.5814 245.296 22.5627 245.232 22.5407C245.222 22.5373 245.211 22.5354 245.201 22.532C245.275 22.5584 245.35 22.5795 245.427 22.5954L245.428 22.5953Z" fill="#45DA6E"/>
<path d="M255.277 19.8268C255.277 19.8268 255.274 19.8303 255.272 19.8321L255.277 19.8268Z" fill="#45DA6E"/>
</g>
<g clip-path="url(#clip1_5859_12492)">
<path d="M361.302 28.2583C361.343 28.2742 361.382 28.2936 361.421 28.3143C361.382 28.2932 361.343 28.2745 361.302 28.2583Z" fill="#45DA6E"/>
<path d="M361.447 28.3271C361.491 28.353 361.535 28.3817 361.576 28.4143C361.535 28.3817 361.491 28.353 361.447 28.3271Z" fill="#45DA6E"/>
<path d="M365.548 38.392C365.54 38.4441 365.529 38.4947 365.514 38.5443C365.529 38.4948 365.54 38.4441 365.548 38.392Z" fill="#45DA6E"/>
<path d="M360.071 38.7561C360.029 38.7727 359.987 38.7862 359.944 38.7974C359.987 38.7862 360.029 38.7728 360.071 38.7561Z" fill="#45DA6E"/>
<path d="M359.42 38.8047C359.42 38.8047 359.417 38.804 359.416 38.804C359.417 38.8043 359.418 38.8047 359.42 38.8047Z" fill="#45DA6E"/>
<path d="M356.704 32.6238C356.707 32.615 356.711 32.6066 356.713 32.5977C356.711 32.6066 356.707 32.615 356.704 32.6238Z" fill="#45DA6E"/>
<path d="M359.145 38.6988C359.137 38.6943 359.128 38.6908 359.12 38.6863C359.128 38.6908 359.137 38.6944 359.145 38.6988Z" fill="#45DA6E"/>
<path d="M359.278 38.761C359.273 38.7589 359.268 38.7575 359.262 38.7551C359.268 38.7572 359.273 38.7589 359.278 38.761Z" fill="#45DA6E"/>
<path d="M359.706 38.8302C359.703 38.8304 359.7 38.8306 359.697 38.8306C359.7 38.8307 359.703 38.8302 359.706 38.8302Z" fill="#45DA6E"/>
<path d="M363.169 37.4475C363.167 37.4491 363.165 37.4504 363.163 37.452C363.165 37.4504 363.167 37.4491 363.169 37.4475Z" fill="#45DA6E"/>
<path d="M359.859 38.8145C359.845 38.8168 359.832 38.8199 359.819 38.8218C359.832 38.8201 359.845 38.8168 359.859 38.8145Z" fill="#45DA6E"/>
<path d="M363.073 37.5249C363.062 37.5323 363.051 37.5388 363.041 37.5458C363.051 37.5386 363.062 37.5324 363.073 37.5249Z" fill="#45DA6E"/>
<path d="M362.966 37.5938C362.927 37.615 362.888 37.6347 362.846 37.6513C362.888 37.6347 362.927 37.6152 362.966 37.5938Z" fill="#45DA6E"/>
<path d="M361.286 28.2536C361.241 28.2365 361.195 28.2225 361.149 28.2117C361.195 28.2225 361.241 28.2368 361.286 28.2536Z" fill="#45DA6E"/>
<path d="M359.202 41.3833L359.205 41.3836C359.205 41.3836 359.203 41.3833 359.202 41.3833Z" fill="#45DA6E"/>
<path d="M365.505 38.5712C365.491 38.6129 365.476 38.6538 365.457 38.6933C365.476 38.6537 365.491 38.6131 365.505 38.5712Z" fill="#45DA6E"/>
<path d="M365.282 38.9608L363.255 37.3613L365.282 38.9608Z" fill="#45DA6E"/>
<path d="M359.049 41.3591C359.057 41.3607 359.064 41.3609 359.071 41.3622C359.064 41.3609 359.056 41.3605 359.049 41.3589L359.049 41.3591Z" fill="#45DA6E"/>
<path d="M363.93 33.4082C363.919 33.3623 363.904 33.3176 363.887 33.2737C363.869 33.2298 363.849 33.1873 363.826 33.146C363.872 33.2284 363.907 33.3167 363.93 33.4082Z" fill="#45DA6E"/>
<path d="M356.763 32.4752C356.765 32.47 356.768 32.465 356.77 32.4599C356.768 32.465 356.765 32.4698 356.763 32.4752Z" fill="#45DA6E"/>
<path d="M354.248 37.7048C354.095 37.5837 353.98 37.4265 353.91 37.2513C353.84 37.0761 353.816 36.8828 353.844 36.6898L354.645 31.1777C354.653 31.1256 354.665 31.075 354.68 31.0254C354.665 31.0749 354.653 31.1256 354.645 31.1777L353.844 36.6898C353.788 37.0761 353.942 37.463 354.248 37.7048L358.619 41.1555C358.661 41.188 358.704 41.2168 358.749 41.2426C358.704 41.2169 358.661 41.188 358.619 41.1555L354.248 37.7048Z" fill="#45DA6E"/>
<path d="M356.839 32.3358C356.839 32.3358 356.841 32.3334 356.842 32.3324C356.841 32.3336 356.84 32.3348 356.839 32.3358Z" fill="#45DA6E"/>
<path d="M356.937 32.2092C357.048 32.0842 357.186 31.9826 357.347 31.9186L360.122 30.8129C360.283 30.7488 360.453 30.7274 360.62 30.7416L360.991 28.1863C361.043 28.1906 361.094 28.1988 361.144 28.2102C360.93 28.1609 360.704 28.1738 360.494 28.2576L355.32 30.319C355.11 30.4028 354.937 30.5493 354.816 30.7318C354.844 30.689 354.876 30.648 354.91 30.6095L356.937 32.2091L356.937 32.2092Z" fill="#45DA6E"/>
<path d="M365.283 38.9604C365.283 38.9604 365.282 38.9621 365.281 38.9628C365.316 38.9237 365.348 38.8822 365.377 38.8383C365.348 38.8811 365.317 38.9219 365.283 38.9604Z" fill="#45DA6E"/>
<path d="M359.357 41.3842C359.31 41.3865 359.264 41.3868 359.218 41.3833C359.264 41.3865 359.31 41.3869 359.357 41.3842Z" fill="#45DA6E"/>
<path d="M363.352 37.2333C363.352 37.2333 363.35 37.2358 363.35 37.2369C363.35 37.2358 363.351 37.2345 363.352 37.2333Z" fill="#45DA6E"/>
<path d="M359.511 41.3647C359.469 41.373 359.427 41.3799 359.384 41.3833C359.427 41.3799 359.469 41.3734 359.511 41.3647Z" fill="#45DA6E"/>
<path d="M358.89 41.3109C358.85 41.295 358.81 41.2757 358.772 41.2546C358.81 41.2757 358.85 41.2948 358.89 41.3109Z" fill="#45DA6E"/>
<path d="M359.044 41.3586C358.998 41.3478 358.952 41.3334 358.907 41.3167C358.952 41.3337 358.998 41.3478 359.044 41.3586Z" fill="#45DA6E"/>
<path d="M359.201 41.3827C359.15 41.3783 359.099 41.3701 359.049 41.3589C359.099 41.3704 359.15 41.3783 359.201 41.3827Z" fill="#45DA6E"/>
<path d="M365.272 38.9712C365.241 39.0058 365.206 39.0379 365.171 39.0683C365.206 39.0382 365.24 39.0056 365.272 38.9712Z" fill="#45DA6E"/>
<path d="M365.45 38.7093C365.429 38.7524 365.406 38.7942 365.38 38.8341C365.406 38.794 365.429 38.7527 365.45 38.7093Z" fill="#45DA6E"/>
<path d="M364.872 39.2506C364.922 39.2307 364.969 39.2067 365.015 39.18C364.969 39.2066 364.922 39.2307 364.872 39.2506Z" fill="#45DA6E"/>
<path d="M365.149 39.0864C365.116 39.1131 365.081 39.1373 365.044 39.1602C365.081 39.1376 365.116 39.1131 365.149 39.0864Z" fill="#45DA6E"/>
<path d="M359.699 41.3117C359.649 41.3316 359.598 41.3469 359.546 41.3589C359.598 41.3468 359.649 41.3315 359.699 41.3117Z" fill="#45DA6E"/>
<path d="M361.049 30.8708C361.057 30.8754 361.066 30.8788 361.074 30.8836C361.066 30.879 361.057 30.8753 361.049 30.8708Z" fill="#45DA6E"/>
<path d="M363.432 37.0945C363.429 37.0997 363.426 37.1048 363.424 37.1099C363.426 37.1048 363.429 37.0997 363.432 37.0945Z" fill="#45DA6E"/>
<path d="M360.914 30.8086C360.919 30.8107 360.925 30.8123 360.93 30.8143C360.925 30.8123 360.919 30.8107 360.914 30.8086Z" fill="#45DA6E"/>
<path d="M363.488 36.946C363.485 36.9551 363.482 36.9635 363.479 36.9725C363.482 36.9635 363.485 36.9551 363.488 36.946Z" fill="#45DA6E"/>
<path d="M354.687 30.998C354.701 30.9564 354.716 30.9153 354.735 30.8757C354.716 30.9153 354.701 30.9561 354.687 30.998Z" fill="#45DA6E"/>
<path d="M354.743 30.8609C354.764 30.8178 354.787 30.7759 354.814 30.7362C354.787 30.7762 354.764 30.8176 354.743 30.8609Z" fill="#45DA6E"/>
<path d="M363.655 32.9197C363.722 32.9887 363.779 33.0656 363.825 33.1481C363.779 33.0657 363.722 32.9888 363.655 32.9197Z" fill="#45DA6E"/>
<path d="M360.774 30.7666C360.774 30.7666 360.777 30.7672 360.778 30.7676C360.777 30.7672 360.775 30.767 360.774 30.7666Z" fill="#45DA6E"/>
<path d="M359.201 41.3825L359.573 38.8276C359.521 38.8232 359.47 38.8151 359.42 38.8035C359.419 38.8032 359.417 38.8028 359.416 38.8028C359.369 38.7921 359.323 38.7775 359.278 38.7607C359.273 38.7586 359.268 38.7572 359.262 38.7549C359.222 38.739 359.182 38.7197 359.144 38.6986C359.136 38.694 359.127 38.6905 359.119 38.686C359.074 38.6602 359.031 38.6314 358.99 38.5988L356.645 36.7478C356.492 36.627 356.376 36.4699 356.307 36.2946L353.908 37.2502C353.978 37.4255 354.093 37.5826 354.246 37.7034L358.618 41.1542C358.659 41.1867 358.702 41.2156 358.747 41.2413C358.755 41.2459 358.764 41.2493 358.772 41.2539C358.811 41.2747 358.85 41.294 358.89 41.3102C358.896 41.3123 358.901 41.3139 358.907 41.3159C358.952 41.3327 358.997 41.3471 359.044 41.3579C359.046 41.3581 359.047 41.3585 359.048 41.3587C359.056 41.3603 359.063 41.3607 359.07 41.3621C359.113 41.3711 359.157 41.3785 359.201 41.3825Z" fill="#45DA6E"/>
<path d="M353.843 36.6879C353.815 36.8809 353.84 37.0743 353.909 37.2495L356.308 36.2939C356.238 36.1186 356.213 35.9253 356.242 35.7323L356.672 32.7755C356.679 32.7234 356.691 32.6728 356.706 32.6232C356.708 32.6143 356.712 32.606 356.715 32.597C356.729 32.5554 356.744 32.5141 356.762 32.4747C356.765 32.4696 356.768 32.4646 356.77 32.4594C356.791 32.4163 356.814 32.3742 356.841 32.3343C356.842 32.3331 356.842 32.3319 356.843 32.3309C356.872 32.288 356.904 32.2471 356.938 32.2083L354.911 30.609C354.877 30.6475 354.845 30.6884 354.817 30.7312C354.816 30.7325 354.815 30.7337 354.814 30.735C354.788 30.7748 354.764 30.8167 354.743 30.8598C354.741 30.865 354.738 30.8701 354.735 30.8752C354.717 30.9145 354.702 30.9556 354.688 30.9975C354.685 31.0064 354.682 31.0148 354.679 31.0236C354.664 31.0733 354.652 31.1239 354.645 31.176L353.843 36.6879Z" fill="#45DA6E"/>
<path d="M363.885 33.2753C363.903 33.3192 363.917 33.364 363.929 33.4098C363.964 33.5472 363.973 33.6922 363.952 33.8369L363.521 36.7937C363.514 36.8458 363.502 36.8965 363.487 36.9461C363.485 36.9549 363.481 36.9636 363.478 36.9726C363.464 37.0142 363.449 37.0552 363.431 37.0946C363.428 37.0998 363.425 37.1049 363.423 37.11C363.401 37.1531 363.378 37.195 363.352 37.2351C363.351 37.2362 363.35 37.2375 363.349 37.2387C363.321 37.2815 363.289 37.3225 363.255 37.3613L365.281 38.9607C365.315 38.9221 365.347 38.8815 365.376 38.8384C365.377 38.8371 365.378 38.836 365.379 38.8347C365.378 38.836 365.377 38.8371 365.376 38.8384C365.347 38.8813 365.316 38.9221 365.282 38.9606C365.316 38.9221 365.347 38.8812 365.376 38.8384C365.377 38.8371 365.378 38.836 365.379 38.8347C365.405 38.7949 365.428 38.753 365.449 38.7099C365.452 38.7047 365.455 38.6996 365.457 38.6945C365.476 38.6551 365.491 38.6141 365.505 38.5724C365.508 38.5635 365.511 38.5551 365.514 38.5459C365.529 38.4964 365.541 38.4457 365.548 38.3936L366.35 32.8815C366.371 32.7368 366.362 32.5919 366.327 32.4545C366.316 32.4086 366.301 32.3639 366.284 32.32L363.886 33.2756L363.885 33.2753Z" fill="#45DA6E"/>
<path d="M361.144 28.2106C361.094 28.1992 361.043 28.191 360.992 28.1867L360.62 30.742C360.671 30.7464 360.723 30.7544 360.773 30.7661C360.774 30.7664 360.776 30.7667 360.777 30.7671C360.824 30.7778 360.869 30.7922 360.914 30.8092C360.92 30.8113 360.925 30.8129 360.931 30.815C360.971 30.8309 361.01 30.8503 361.049 30.871C361.057 30.8755 361.066 30.8789 361.074 30.8837C361.119 30.9096 361.162 30.9383 361.204 30.9709L361.649 31.3225L363.028 29.9632L363.16 32.5153L363.549 32.8219C363.587 32.8521 363.623 32.8847 363.656 32.9189C363.723 32.988 363.78 33.0648 363.826 33.1474C363.849 33.1888 363.869 33.2312 363.887 33.2751L366.285 32.3195C366.233 32.1881 366.155 32.067 366.054 31.9633C366.021 31.9288 365.985 31.8965 365.947 31.8663L361.575 28.4152C361.534 28.3826 361.49 28.3538 361.446 28.328C361.437 28.3235 361.429 28.3197 361.42 28.3153C361.382 28.2944 361.343 28.275 361.302 28.2592C361.297 28.2572 361.291 28.2556 361.286 28.2535C361.241 28.2367 361.195 28.2223 361.149 28.2116C361.147 28.2113 361.146 28.2109 361.144 28.2107L361.144 28.2106Z" fill="#45DA6E"/>
<path d="M363.256 37.3603C363.229 37.391 363.2 37.4205 363.169 37.4482C363.168 37.4498 363.166 37.4511 363.164 37.4527C363.135 37.4782 363.105 37.5024 363.074 37.525C363.064 37.5324 363.053 37.5389 363.042 37.5459C363.017 37.5622 362.993 37.5786 362.967 37.5931C362.928 37.6145 362.888 37.634 362.847 37.6506L360.071 38.7566C360.029 38.7734 359.986 38.7868 359.943 38.7979C359.915 38.8053 359.887 38.8101 359.858 38.8149C359.845 38.8171 359.832 38.8203 359.819 38.8222C359.781 38.8271 359.743 38.8302 359.705 38.8313C359.702 38.8316 359.699 38.8317 359.696 38.8317C359.655 38.8325 359.614 38.8315 359.574 38.828L359.573 38.8282L359.202 41.3831C359.202 41.3831 359.203 41.3834 359.204 41.3834C359.209 41.3839 359.214 41.3843 359.219 41.3847C359.265 41.3881 359.311 41.3879 359.358 41.3856C359.367 41.3852 359.376 41.385 359.386 41.3842C359.428 41.3808 359.47 41.3742 359.512 41.3656C359.524 41.3633 359.535 41.362 359.547 41.3592C359.598 41.3471 359.649 41.3318 359.699 41.312L364.873 39.2504C364.923 39.2305 364.97 39.2065 365.016 39.1798C365.026 39.1739 365.036 39.167 365.045 39.1607C365.082 39.1379 365.117 39.1136 365.15 39.0869C365.157 39.0811 365.164 39.0751 365.171 39.069C365.207 39.0386 365.241 39.0065 365.272 38.9719C365.275 38.9686 365.278 38.9653 365.281 38.962C365.282 38.9612 365.282 38.9604 365.283 38.9598L363.257 37.3604L363.256 37.3603Z" fill="#45DA6E"/>
<path d="M365.283 38.9592C365.317 38.9207 365.348 38.8797 365.377 38.837C365.348 38.88 365.316 38.9205 365.282 38.9593L365.283 38.9592Z" fill="#45DA6E"/>
<path d="M359.201 41.3826C359.157 41.3786 359.114 41.3715 359.07 41.3622C359.063 41.3607 359.056 41.3603 359.049 41.3589C359.099 41.3704 359.15 41.3783 359.201 41.3827L359.201 41.3826Z" fill="#45DA6E"/>
<path d="M365.379 38.8338C365.379 38.8338 365.377 38.8362 365.376 38.8375L365.379 38.8338Z" fill="#45DA6E"/>
</g>
<path d="M17.7872 218.734L10.5381 220.529C10.2643 220.597 9.98513 220.439 9.91595 220.173L8.05537 212.665C8.03564 212.585 8.03184 212.502 8.04547 212.42C8.07456 212.238 8.22082 212.01 8.52533 211.548C9.07372 210.72 9.90161 209.466 9.8846 208.252L9.88306 208.109C9.87708 207.662 9.86895 206.988 9.78746 206.482C9.72008 206.06 9.82551 205.45 10.6724 205.24C11.3218 205.079 11.8363 205.273 12.093 205.723C12.4936 206.426 12.9329 207.776 12.9086 210.241C12.9092 210.257 12.9154 210.269 12.924 210.276C12.9319 210.281 12.9437 210.288 12.9628 210.283L17.2862 209.212C17.6555 209.121 18.0549 209.178 18.3757 209.368C18.6926 209.556 18.9114 209.853 18.9907 210.2C19.1206 210.779 18.8313 211.37 18.3192 211.663C18.6195 211.838 18.8496 212.126 18.9368 212.478C19.0832 213.069 18.7936 213.686 18.2806 213.989C18.5841 214.164 18.8149 214.454 18.9021 214.806C19.047 215.391 18.7655 215.987 18.255 216.285C18.5465 216.467 18.7663 216.753 18.8456 217.101C19.012 217.813 18.537 218.542 17.7857 218.728L17.7872 218.734ZM10.7657 205.685C10.269 205.808 10.2087 206.151 10.2511 206.403C10.3473 206.941 10.3472 207.637 10.353 208.097L10.3546 208.239C10.3748 209.589 9.50007 210.913 8.92015 211.791C8.73599 212.071 8.52682 212.386 8.51304 212.48C8.5088 212.504 8.51168 212.529 8.51699 212.55L10.3776 220.059C10.3829 220.08 10.4065 220.094 10.4288 220.088L17.678 218.293C18.1778 218.169 18.4969 217.684 18.384 217.215C18.288 216.8 17.9036 216.545 17.4604 216.57C17.3373 216.578 17.232 216.493 17.2166 216.377C17.2013 216.26 17.2788 216.15 17.3966 216.121L17.3997 216.12L17.7598 216.005C18.2533 215.883 18.5588 215.398 18.4413 214.923C18.3343 214.492 17.9098 214.21 17.4536 214.265C17.332 214.279 17.2178 214.2 17.1961 214.085C17.1737 213.967 17.2504 213.854 17.3674 213.822C17.4056 213.812 17.7472 213.718 17.7981 213.705C18.2852 213.585 18.595 213.076 18.4759 212.595C18.3637 212.142 17.9043 211.856 17.4294 211.945C17.303 211.966 17.1832 211.892 17.16 211.771C17.1336 211.651 17.212 211.531 17.3361 211.5C17.3361 211.5 17.7723 211.392 17.8487 211.373C18.3326 211.253 18.6404 210.777 18.5347 210.31C18.4818 210.083 18.3388 209.887 18.1291 209.764C17.9147 209.635 17.6492 209.6 17.4009 209.662L13.0775 210.732C12.9183 210.772 12.7576 210.737 12.6294 210.642C12.5035 210.543 12.4337 210.398 12.4419 210.24C12.5112 208.351 12.0381 206.565 11.6793 205.949C11.473 205.594 11.0266 205.633 10.7767 205.688C10.7767 205.688 10.7767 205.688 10.7735 205.689L10.7657 205.685Z" fill="#45DA6E" stroke="#45DA6E" stroke-width="1.9"/>
<path d="M8.13709 219.629C8.38325 219.568 8.53526 219.327 8.47661 219.09C8.41796 218.854 8.17087 218.711 7.92471 218.772C7.67855 218.833 7.52655 219.074 7.58519 219.311C7.64384 219.548 7.89093 219.69 8.13709 219.629Z" fill="#45DA6E" stroke="#45DA6E"/>
<path d="M9.92042 220.682L7.09972 221.38C6.78772 221.458 6.47553 221.275 6.40196 220.978L4.50193 213.311C4.4276 213.011 4.62237 212.706 4.93118 212.629L7.75188 211.931C8.06387 211.854 8.37606 212.036 8.44964 212.333L10.3497 220C10.424 220.3 10.2292 220.605 9.92042 220.682ZM5.03813 213.061C4.97445 213.077 4.93565 213.138 4.95082 213.2L6.85085 220.867C6.86602 220.928 6.9291 220.965 6.99277 220.949L9.81347 220.25C9.87714 220.234 9.91594 220.173 9.90077 220.112L8.00074 212.444C7.98557 212.383 7.9225 212.347 7.85883 212.362L5.03813 213.061Z" fill="#45DA6E" stroke="#45DA6E" stroke-width="1.9"/>
<path fill-rule="evenodd" clip-rule="evenodd" d="M152.41 431.74C154.434 430.809 156.77 430.991 158.567 432.206C158.038 434.308 156.405 435.993 154.283 436.599L151.132 437.53L150.453 437.608L148.932 433.59L149.504 433.207L152.41 431.74ZM148.894 431.857L151.788 430.417C151.788 430.417 151.87 430.414 151.876 430.4C150.991 430.217 149.781 430.22 148.033 430.71L148.894 431.857ZM154.11 429.723C156.079 429.46 158.171 430.009 159.786 431.273C160.025 431.46 160.138 431.751 160.086 432.05C159.745 434.09 158.561 435.853 156.926 436.997C156.853 437.344 156.671 437.754 156.386 438.216C155.811 439.331 154.595 440.62 152.347 441.694C151.43 442.125 150.428 441.479 150.288 440.523L150.167 439.342C149.774 439.321 149.464 439.111 149.364 438.792L149.398 438.896L148.715 439.165C147.941 439.458 147.066 439.07 146.763 438.3L145.726 435.552C145.42 434.788 145.799 433.933 146.573 433.64L147.257 433.371L147.288 433.481C147.194 433.15 147.282 432.77 147.548 432.533L146.85 431.563C146.306 430.791 146.579 429.631 147.594 429.339C149.949 428.571 151.727 428.739 152.916 429.145C153.408 429.307 153.797 429.52 154.11 429.723ZM147.775 434.745L147.092 435.014L148.197 437.791L148.88 437.522L147.775 434.745ZM151.623 438.964L151.749 440.317C153.369 439.569 154.303 438.735 154.787 438.007C154.781 438.02 154.775 438.033 154.699 438.024L151.623 438.964Z" fill="#45DA6E"/>
<ellipse cx="156.255" cy="433.084" rx="1.32578" ry="1.32544" transform="rotate(23.9111 156.255 433.084)" fill="#45DA6E"/>
<path fill-rule="evenodd" clip-rule="evenodd" d="M146.312 439.017C146.544 438.788 146.567 438.432 146.317 438.179C146.068 437.926 145.711 437.945 145.48 438.174C144.78 438.864 143.673 438.874 142.966 438.157C142.716 437.904 142.36 437.922 142.128 438.151C141.896 438.38 141.873 438.736 142.123 438.989C143.288 440.17 145.148 440.166 146.312 439.017Z" fill="#45DA6E"/>
<path fill-rule="evenodd" clip-rule="evenodd" d="M142.03 438.378C142.018 438.697 142.24 438.966 142.588 438.979C142.935 438.992 143.176 438.74 143.188 438.422C143.224 437.461 144.006 436.714 144.99 436.751C145.337 436.764 145.579 436.513 145.591 436.194C145.603 435.876 145.381 435.607 145.034 435.594C143.413 435.533 142.09 436.781 142.03 438.378Z" fill="#45DA6E"/>
<path d="M153.046 434.098C153.208 434.517 152.999 434.99 152.579 435.152L150.787 435.862C150.367 436.024 149.859 435.798 149.697 435.379C149.539 434.952 149.748 434.479 150.168 434.317L151.957 433.615C152.376 433.453 152.885 433.678 153.046 434.098Z" fill="#45DA6E"/>
<path fill-rule="evenodd" clip-rule="evenodd" d="M386.06 272.858L384.81 271.874L382.249 275.128L383.498 276.112L386.06 272.858ZM382.634 268.672C382.874 269.434 383.264 270.084 383.727 270.678L382.948 271.668L380.904 270.06L380.08 268.15C379.878 267.762 379.398 267.614 378.97 267.849C378.542 268.085 378.395 268.542 378.54 269L378.93 269.765L377.778 269.775C377.33 269.766 376.878 270.212 376.855 270.653C376.832 271.093 377.17 271.474 377.612 271.478L379.903 271.448L381.89 273.013L380.888 274.286C380.239 274.004 379.553 273.808 378.837 273.703L377.024 273.421C373.928 272.931 372.721 269.231 374.837 266.543C376.952 263.854 381.019 264.192 382.117 267.233L382.634 268.672ZM373.587 265.559C370.692 269.237 372.323 274.417 376.64 275.066L378.453 275.348C379.481 275.585 380.479 276.027 381.316 276.686L382.429 277.562C383.097 278.088 384.136 277.875 384.692 277.167L387.421 273.701C387.922 273.064 387.867 272.105 387.242 271.613L386.136 270.742C385.243 270.038 384.584 269.062 384.199 267.956L383.682 266.518C382.143 262.327 376.594 261.739 373.587 265.559Z" fill="#45DA6E"/>
<g clip-path="url(#clip2_5859_12492)">
<path d="M280.412 421.676C280.377 421.605 280.335 421.538 280.292 421.471C280.336 421.537 280.376 421.605 280.412 421.676Z" fill="#45DA6E"/>
<path d="M280.263 421.428C280.209 421.352 280.15 421.278 280.085 421.208C280.15 421.278 280.209 421.352 280.263 421.428Z" fill="#45DA6E"/>
<path d="M261.402 415.617C261.309 415.639 261.219 415.668 261.132 415.703C261.219 415.669 261.309 415.639 261.402 415.617Z" fill="#45DA6E"/>
<path d="M261.623 425.584C261.6 425.662 261.582 425.741 261.569 425.821C261.582 425.741 261.6 425.662 261.623 425.584Z" fill="#45DA6E"/>
<path d="M261.64 426.768C261.64 426.768 261.642 426.773 261.642 426.776C261.641 426.773 261.64 426.771 261.64 426.768Z" fill="#45DA6E"/>
<path d="M273.253 430.69C273.268 430.684 273.283 430.676 273.298 430.669C273.283 430.676 273.268 430.684 273.253 430.69Z" fill="#45DA6E"/>
<path d="M261.875 427.25C261.885 427.264 261.892 427.279 261.902 427.293C261.892 427.279 261.885 427.265 261.875 427.25Z" fill="#45DA6E"/>
<path d="M261.742 427.017C261.747 427.026 261.75 427.036 261.755 427.045C261.751 427.036 261.747 427.026 261.742 427.017Z" fill="#45DA6E"/>
<path d="M261.546 426.257C261.546 426.263 261.546 426.267 261.547 426.273C261.546 426.268 261.546 426.263 261.546 426.257Z" fill="#45DA6E"/>
<path d="M263.492 419.771C263.49 419.774 263.488 419.778 263.485 419.781C263.488 419.778 263.49 419.774 263.492 419.771Z" fill="#45DA6E"/>
<path d="M261.551 425.978C261.549 426.002 261.546 426.026 261.544 426.05C261.545 426.026 261.549 426.002 261.551 425.978Z" fill="#45DA6E"/>
<path d="M263.369 419.956C263.357 419.976 263.347 419.997 263.336 420.017C263.347 419.997 263.357 419.976 263.369 419.956Z" fill="#45DA6E"/>
<path d="M263.263 420.16C263.231 420.234 263.202 420.309 263.178 420.387C263.202 420.309 263.231 420.234 263.263 420.16Z" fill="#45DA6E"/>
<path d="M280.425 421.704C280.463 421.782 280.496 421.863 280.523 421.946C280.496 421.863 280.463 421.783 280.425 421.704Z" fill="#45DA6E"/>
<path d="M257.01 427.577L257.009 427.573C257.009 427.573 257.01 427.575 257.01 427.577Z" fill="#45DA6E"/>
<path d="M261.087 415.724C261.014 415.755 260.942 415.789 260.874 415.829C260.942 415.79 261.013 415.755 261.087 415.724Z" fill="#45DA6E"/>
<path d="M260.42 416.19L263.638 419.599L260.42 416.19Z" fill="#45DA6E"/>
<path d="M257.078 427.849C257.074 427.835 257.073 427.823 257.069 427.81C257.073 427.823 257.075 427.836 257.079 427.849L257.078 427.849Z" fill="#45DA6E"/>
<path d="M270.676 417.748C270.761 417.762 270.844 417.781 270.926 417.805C271.008 417.83 271.088 417.86 271.167 417.895C271.01 417.825 270.845 417.775 270.676 417.748Z" fill="#45DA6E"/>
<path d="M273.511 430.564C273.52 430.559 273.528 430.553 273.537 430.548C273.528 430.553 273.52 430.559 273.511 430.564Z" fill="#45DA6E"/>
<path d="M264.458 435.949C264.702 436.206 265.004 436.39 265.333 436.488C265.661 436.586 266.014 436.599 266.359 436.517L276.2 434.185C276.293 434.163 276.383 434.134 276.47 434.099C276.383 434.134 276.293 434.163 276.2 434.185L266.359 436.517C265.669 436.681 264.945 436.464 264.458 435.949L257.517 428.594C257.451 428.525 257.392 428.451 257.339 428.374C257.392 428.451 257.451 428.525 257.517 428.594L264.458 435.949Z" fill="#45DA6E"/>
<path d="M273.753 430.399C273.753 430.399 273.758 430.396 273.759 430.394C273.757 430.396 273.755 430.397 273.753 430.399Z" fill="#45DA6E"/>
<path d="M273.966 430.203C274.174 429.982 274.336 429.715 274.426 429.415L275.981 424.219C276.071 423.918 276.083 423.606 276.031 423.307L280.593 422.225C280.577 422.133 280.554 422.043 280.525 421.954C280.648 422.332 280.662 422.743 280.544 423.137L277.644 432.824C277.526 433.218 277.288 433.555 276.978 433.803C277.051 433.744 277.12 433.681 277.184 433.612L273.966 430.203L273.966 430.203Z" fill="#45DA6E"/>
<path d="M260.419 416.19C260.419 416.19 260.416 416.192 260.415 416.194C260.48 416.124 260.55 416.059 260.625 416C260.552 416.058 260.483 416.122 260.419 416.19Z" fill="#45DA6E"/>
<path d="M256.981 427.295C256.984 427.379 256.991 427.463 257.005 427.546C256.992 427.463 256.984 427.38 256.981 427.295Z" fill="#45DA6E"/>
<path d="M263.851 419.403C263.851 419.403 263.846 419.407 263.844 419.408C263.846 419.407 263.848 419.405 263.851 419.403Z" fill="#45DA6E"/>
<path d="M256.992 427.013C256.984 427.09 256.978 427.167 256.979 427.244C256.978 427.167 256.983 427.09 256.992 427.013Z" fill="#45DA6E"/>
<path d="M257.191 428.127C257.226 428.197 257.267 428.265 257.312 428.332C257.267 428.265 257.226 428.197 257.191 428.127Z" fill="#45DA6E"/>
<path d="M257.081 427.857C257.108 427.939 257.141 428.02 257.178 428.099C257.14 428.02 257.108 427.939 257.081 427.857Z" fill="#45DA6E"/>
<path d="M257.011 427.577C257.027 427.669 257.05 427.759 257.079 427.848C257.05 427.759 257.027 427.669 257.011 427.577Z" fill="#45DA6E"/>
<path d="M260.4 416.211C260.343 416.274 260.29 416.34 260.241 416.41C260.289 416.34 260.343 416.274 260.4 416.211Z" fill="#45DA6E"/>
<path d="M260.846 415.846C260.771 415.892 260.699 415.94 260.632 415.994C260.7 415.941 260.771 415.891 260.846 415.846Z" fill="#45DA6E"/>
<path d="M259.96 416.978C259.988 416.884 260.024 416.795 260.065 416.707C260.024 416.794 259.988 416.884 259.96 416.978Z" fill="#45DA6E"/>
<path d="M260.211 416.45C260.168 416.515 260.13 416.582 260.094 416.652C260.129 416.582 260.168 416.515 260.211 416.45Z" fill="#45DA6E"/>
<path d="M257.06 426.666C257.031 426.76 257.012 426.854 256.999 426.949C257.012 426.854 257.032 426.759 257.06 426.666Z" fill="#45DA6E"/>
<path d="M275.728 422.553C275.719 422.539 275.711 422.523 275.701 422.509C275.711 422.523 275.719 422.538 275.728 422.553Z" fill="#45DA6E"/>
<path d="M264.091 419.239C264.082 419.244 264.073 419.251 264.064 419.256C264.073 419.251 264.082 419.244 264.091 419.239Z" fill="#45DA6E"/>
<path d="M275.862 422.786C275.857 422.776 275.853 422.766 275.849 422.757C275.853 422.766 275.857 422.776 275.862 422.786Z" fill="#45DA6E"/>
<path d="M264.351 419.113C264.335 419.119 264.32 419.128 264.305 419.134C264.32 419.128 264.335 419.119 264.351 419.113Z" fill="#45DA6E"/>
<path d="M276.516 434.078C276.589 434.047 276.661 434.013 276.729 433.973C276.661 434.013 276.589 434.047 276.516 434.078Z" fill="#45DA6E"/>
<path d="M276.755 433.956C276.83 433.911 276.902 433.862 276.97 433.808C276.901 433.862 276.83 433.911 276.755 433.956Z" fill="#45DA6E"/>
<path d="M271.606 418.165C271.471 418.055 271.323 417.965 271.166 417.895C271.323 417.965 271.471 418.056 271.606 418.165Z" fill="#45DA6E"/>
<path d="M275.961 423.035C275.961 423.035 275.96 423.03 275.959 423.028C275.96 423.03 275.961 423.033 275.961 423.035Z" fill="#45DA6E"/>
<path d="M257.012 427.576L261.574 426.495C261.59 426.587 261.612 426.678 261.642 426.768C261.642 426.77 261.643 426.772 261.643 426.775C261.67 426.858 261.704 426.939 261.742 427.017C261.746 427.026 261.75 427.036 261.755 427.045C261.79 427.116 261.831 427.184 261.876 427.25C261.885 427.264 261.893 427.279 261.902 427.293C261.956 427.37 262.015 427.444 262.081 427.513L265.804 431.458C266.047 431.716 266.35 431.899 266.678 431.997L265.333 436.488C265.005 436.39 264.703 436.207 264.46 435.949L257.518 428.595C257.453 428.525 257.394 428.452 257.34 428.375C257.33 428.361 257.323 428.346 257.313 428.332C257.269 428.266 257.228 428.197 257.192 428.127C257.188 428.117 257.184 428.107 257.179 428.098C257.142 428.019 257.109 427.939 257.082 427.857C257.081 427.854 257.08 427.851 257.079 427.849C257.075 427.836 257.073 427.823 257.07 427.81C257.047 427.733 257.026 427.655 257.012 427.576Z" fill="#45DA6E"/>
<path d="M266.358 436.518C266.013 436.6 265.66 436.587 265.331 436.488L266.676 431.998C267.004 432.096 267.357 432.109 267.702 432.028L272.981 430.776C273.074 430.754 273.164 430.725 273.251 430.69C273.267 430.684 273.281 430.676 273.297 430.669C273.37 430.638 273.443 430.604 273.511 430.564C273.52 430.559 273.528 430.553 273.537 430.548C273.612 430.503 273.684 430.454 273.752 430.4C273.754 430.398 273.756 430.397 273.758 430.395C273.831 430.336 273.9 430.272 273.965 430.204L277.182 433.614C277.118 433.682 277.049 433.745 276.976 433.804C276.974 433.806 276.972 433.808 276.969 433.81C276.902 433.863 276.83 433.912 276.755 433.958C276.746 433.963 276.737 433.969 276.728 433.974C276.66 434.014 276.588 434.048 276.515 434.079C276.499 434.086 276.485 434.094 276.469 434.1C276.382 434.135 276.292 434.164 276.199 434.186L266.358 436.518Z" fill="#45DA6E"/>
<path d="M270.925 417.805C270.843 417.781 270.76 417.762 270.675 417.748C270.421 417.707 270.157 417.715 269.899 417.776L264.62 419.027C264.527 419.049 264.437 419.078 264.35 419.113C264.334 419.119 264.319 419.127 264.303 419.134C264.23 419.166 264.158 419.199 264.09 419.24C264.081 419.245 264.072 419.251 264.063 419.256C263.989 419.301 263.917 419.35 263.849 419.404C263.846 419.406 263.844 419.408 263.842 419.409C263.769 419.468 263.7 419.531 263.636 419.599L260.418 416.191C260.483 416.123 260.551 416.059 260.624 416C260.627 415.998 260.629 415.997 260.631 415.995C260.629 415.997 260.627 415.998 260.624 416C260.551 416.059 260.483 416.122 260.418 416.19C260.483 416.122 260.552 416.058 260.624 416C260.627 415.998 260.629 415.997 260.631 415.995C260.698 415.941 260.771 415.892 260.845 415.847C260.854 415.841 260.863 415.835 260.872 415.83C260.94 415.79 261.012 415.756 261.085 415.725C261.101 415.718 261.115 415.71 261.131 415.703C261.218 415.669 261.308 415.639 261.401 415.617L271.243 413.285C271.501 413.224 271.765 413.216 272.019 413.257C272.104 413.271 272.187 413.29 272.269 413.315L270.925 417.805L270.925 417.805Z" fill="#45DA6E"/>
<path d="M280.524 421.954C280.552 422.043 280.575 422.134 280.591 422.226L276.029 423.308C276.013 423.215 275.99 423.124 275.961 423.035C275.96 423.033 275.96 423.03 275.959 423.027C275.932 422.945 275.898 422.865 275.86 422.786C275.856 422.777 275.852 422.767 275.847 422.757C275.812 422.687 275.771 422.619 275.727 422.552C275.718 422.538 275.71 422.523 275.7 422.509C275.646 422.432 275.587 422.358 275.522 422.289L274.815 421.54L277.052 418.828L272.415 418.997L271.798 418.344C271.738 418.279 271.673 418.219 271.606 418.164C271.47 418.054 271.322 417.964 271.165 417.894C271.087 417.859 271.007 417.829 270.924 417.805L272.269 413.314C272.515 413.388 272.746 413.509 272.95 413.674C273.018 413.729 273.082 413.789 273.143 413.853L280.085 421.208C280.15 421.278 280.209 421.351 280.263 421.428C280.273 421.442 280.281 421.457 280.29 421.472C280.334 421.538 280.376 421.606 280.411 421.677C280.415 421.686 280.419 421.696 280.424 421.705C280.461 421.784 280.495 421.864 280.521 421.947C280.522 421.949 280.523 421.952 280.524 421.955L280.524 421.954Z" fill="#45DA6E"/>
<path d="M263.638 419.599C263.587 419.653 263.538 419.71 263.493 419.77C263.49 419.773 263.488 419.777 263.485 419.78C263.444 419.836 263.405 419.894 263.369 419.955C263.357 419.974 263.347 419.995 263.336 420.016C263.311 420.063 263.285 420.11 263.263 420.159C263.23 420.233 263.202 420.308 263.178 420.386L261.622 425.583C261.599 425.662 261.581 425.741 261.568 425.821C261.559 425.873 261.555 425.925 261.551 425.978C261.549 426.002 261.545 426.026 261.544 426.05C261.541 426.119 261.542 426.188 261.546 426.257C261.546 426.263 261.546 426.267 261.546 426.273C261.552 426.347 261.56 426.421 261.573 426.494L261.573 426.495L257.011 427.576C257.011 427.576 257.01 427.573 257.01 427.572C257.008 427.563 257.007 427.554 257.005 427.545C256.992 427.462 256.985 427.379 256.981 427.294C256.981 427.277 256.98 427.26 256.979 427.243C256.979 427.166 256.984 427.089 256.993 427.012C256.995 426.99 256.996 426.969 256.999 426.948C257.013 426.853 257.032 426.758 257.06 426.665L259.96 416.977C259.988 416.884 260.024 416.794 260.065 416.707C260.074 416.687 260.085 416.669 260.095 416.651C260.13 416.581 260.169 416.513 260.211 416.449C260.221 416.435 260.231 416.422 260.241 416.408C260.29 416.339 260.342 416.272 260.4 416.21C260.405 416.204 260.411 416.198 260.416 416.192C260.418 416.191 260.419 416.19 260.42 416.189L263.638 419.597L263.638 419.599Z" fill="#45DA6E"/>
<path d="M260.42 416.19C260.484 416.121 260.553 416.058 260.626 416C260.553 416.058 260.484 416.122 260.42 416.19L260.42 416.19Z" fill="#45DA6E"/>
<path d="M257.011 427.577C257.026 427.656 257.046 427.733 257.069 427.81C257.073 427.822 257.075 427.836 257.079 427.848C257.05 427.759 257.027 427.669 257.011 427.577L257.011 427.577Z" fill="#45DA6E"/>
<path d="M260.632 415.994C260.632 415.994 260.628 415.998 260.626 416L260.632 415.994Z" fill="#45DA6E"/>
</g>
<g clip-path="url(#clip3_5859_12492)">
<path d="M17.4861 372.52C17.4548 372.499 17.4217 372.482 17.3878 372.465C17.4219 372.481 17.4546 372.499 17.4861 372.52Z" fill="#45DA6E"/>
<path d="M17.3662 372.453C17.3258 372.435 17.284 372.419 17.2405 372.406C17.284 372.419 17.3258 372.435 17.3662 372.453Z" fill="#45DA6E"/>
<path d="M8.26549 374.595C8.2328 374.626 8.20306 374.66 8.17574 374.695C8.20311 374.66 8.2328 374.626 8.26549 374.595Z" fill="#45DA6E"/>
<path d="M10.7436 378.616C10.7528 378.654 10.7647 378.69 10.7783 378.726C10.7647 378.69 10.7528 378.654 10.7436 378.616Z" fill="#45DA6E"/>
<path d="M11.0352 379.095C11.0352 379.095 11.0371 379.097 11.0378 379.098C11.0369 379.097 11.036 379.096 11.0352 379.095Z" fill="#45DA6E"/>
<path d="M16.7206 377.918C16.7255 377.911 16.7295 377.905 16.7343 377.898C16.7295 377.905 16.7255 377.911 16.7206 377.918Z" fill="#45DA6E"/>
<path d="M11.2455 379.237C11.2527 379.24 11.2594 379.244 11.2666 379.248C11.2594 379.244 11.2527 379.24 11.2455 379.237Z" fill="#45DA6E"/>
<path d="M11.1368 379.174C11.1409 379.176 11.1446 379.179 11.1489 379.182C11.1448 379.179 11.1409 379.176 11.1368 379.174Z" fill="#45DA6E"/>
<path d="M10.8742 378.91C10.8755 378.912 10.8767 378.914 10.8782 378.916C10.8767 378.914 10.8757 378.912 10.8742 378.91Z" fill="#45DA6E"/>
<path d="M10.1153 375.793C10.1151 375.795 10.1151 375.797 10.1148 375.799C10.1151 375.797 10.1151 375.795 10.1153 375.793Z" fill="#45DA6E"/>
<path d="M10.8083 378.795C10.8133 378.805 10.8176 378.816 10.8228 378.826C10.8174 378.816 10.8133 378.805 10.8083 378.795Z" fill="#45DA6E"/>
<path d="M10.1091 375.898C10.109 375.909 10.11 375.92 10.1104 375.931C10.1102 375.92 10.109 375.909 10.1091 375.898Z" fill="#45DA6E"/>
<path d="M10.114 376.007C10.1185 376.044 10.1245 376.082 10.1337 376.12C10.1245 376.082 10.1183 376.045 10.114 376.007Z" fill="#45DA6E"/>
<path d="M17.4994 372.528C17.5337 372.551 17.5664 372.576 17.5972 372.603C17.5664 372.576 17.5335 372.551 17.4994 372.528Z" fill="#45DA6E"/>
<path d="M9.33765 380.535L9.33632 380.534C9.33632 380.534 9.33724 380.534 9.33765 380.535Z" fill="#45DA6E"/>
<path d="M8.16297 374.715C8.1406 374.745 8.11939 374.776 8.10106 374.809C8.11968 374.776 8.14037 374.745 8.16297 374.715Z" fill="#45DA6E"/>
<path d="M8.00281 375.065L10.1345 375.687L8.00281 375.065Z" fill="#45DA6E"/>
<path d="M9.43068 380.629C9.42589 380.625 9.42227 380.62 9.41777 380.616C9.42227 380.62 9.42618 380.625 9.43091 380.629L9.43068 380.629Z" fill="#45DA6E"/>
<path d="M12.5669 373.245C12.6049 373.231 12.6435 373.219 12.6829 373.209C12.7224 373.199 12.7623 373.192 12.8027 373.188C12.722 373.197 12.6426 373.216 12.5669 373.245Z" fill="#45DA6E"/>
<path d="M16.7952 377.804C16.7976 377.8 16.7997 377.795 16.8021 377.791C16.7997 377.795 16.7978 377.8 16.7952 377.804Z" fill="#45DA6E"/>
<path d="M14.3866 382.173C14.5479 382.22 14.7154 382.223 14.8731 382.184C15.0307 382.146 15.1783 382.067 15.2996 381.951L18.7628 378.641C18.7955 378.609 18.8253 378.576 18.8526 378.541C18.8252 378.576 18.7955 378.609 18.7628 378.641L15.2996 381.951C15.0569 382.183 14.7089 382.268 14.3866 382.173L9.78765 380.83C9.7442 380.817 9.70239 380.801 9.66199 380.783C9.70245 380.802 9.7442 380.817 9.78765 380.83L14.3866 382.173Z" fill="#45DA6E"/>
<path d="M16.8561 377.679C16.8561 377.679 16.857 377.677 16.8572 377.675C16.8567 377.676 16.8562 377.678 16.8561 377.679Z" fill="#45DA6E"/>
<path d="M16.8953 377.548C16.9275 377.408 16.9296 377.26 16.8943 377.115L16.2851 374.619C16.2498 374.475 16.18 374.345 16.0868 374.235L17.6922 372.7C17.6635 372.667 17.6325 372.635 17.5994 372.606C17.7403 372.731 17.8444 372.896 17.8905 373.085L19.0263 377.738C19.0725 377.927 19.0562 378.122 18.9887 378.298C19.0044 378.256 19.0174 378.214 19.0273 378.171L16.8953 377.548L16.8953 377.548Z" fill="#45DA6E"/>
<path d="M8.00185 375.065C8.00185 375.065 8.00126 375.067 8.00126 375.068C8.01119 375.024 8.02424 374.98 8.04047 374.938C8.02476 374.98 8.01172 375.022 8.00185 375.065Z" fill="#45DA6E"/>
<path d="M9.25679 380.427C9.27828 380.461 9.30127 380.493 9.32666 380.524C9.30145 380.493 9.2781 380.461 9.25679 380.427Z" fill="#45DA6E"/>
<path d="M10.1738 375.557C10.1738 375.557 10.1729 375.559 10.1725 375.56C10.1729 375.559 10.1734 375.558 10.1738 375.557Z" fill="#45DA6E"/>
<path d="M9.19446 380.309C9.20951 380.342 9.22567 380.375 9.24438 380.406C9.22567 380.375 9.20934 380.342 9.19446 380.309Z" fill="#45DA6E"/>
<path d="M9.54334 380.717C9.57464 380.737 9.6078 380.755 9.64185 380.771C9.6078 380.755 9.57487 380.737 9.54334 380.717Z" fill="#45DA6E"/>
<path d="M9.43295 380.633C9.46369 380.66 9.49658 380.685 9.53076 380.708C9.49635 380.685 9.46369 380.66 9.43295 380.633Z" fill="#45DA6E"/>
<path d="M9.33629 380.535C9.3649 380.568 9.39596 380.6 9.42871 380.629C9.39573 380.6 9.3649 380.568 9.33629 380.535Z" fill="#45DA6E"/>
<path d="M7.99937 375.078C7.99074 375.117 7.98525 375.157 7.98177 375.198C7.98501 375.157 7.99103 375.118 7.99937 375.078Z" fill="#45DA6E"/>
<path d="M8.09412 374.822C8.07444 374.859 8.05667 374.896 8.04196 374.934C8.05696 374.896 8.07421 374.859 8.09412 374.822Z" fill="#45DA6E"/>
<path d="M8.00201 375.497C7.99102 375.452 7.98414 375.406 7.97994 375.361C7.98409 375.406 7.99102 375.452 8.00201 375.497Z" fill="#45DA6E"/>
<path d="M7.97823 375.221C7.97611 375.258 7.97671 375.295 7.97882 375.331C7.97648 375.295 7.97611 375.258 7.97823 375.221Z" fill="#45DA6E"/>
<path d="M9.13953 380.151C9.15052 380.196 9.16528 380.239 9.18237 380.281C9.16522 380.239 9.15046 380.195 9.13953 380.151Z" fill="#45DA6E"/>
<path d="M15.7815 373.999C15.7743 373.996 15.7675 373.991 15.7601 373.988C15.7673 373.991 15.7742 373.996 15.7815 373.999Z" fill="#45DA6E"/>
<path d="M10.2317 375.432C10.2293 375.436 10.2273 375.441 10.2249 375.445C10.2273 375.441 10.2293 375.436 10.2317 375.432Z" fill="#45DA6E"/>
<path d="M15.8923 374.062C15.8882 374.06 15.8843 374.057 15.8802 374.054C15.8843 374.057 15.8882 374.06 15.8923 374.062Z" fill="#45DA6E"/>
<path d="M10.3082 375.318C10.3031 375.324 10.2992 375.331 10.2944 375.338C10.2992 375.331 10.3031 375.324 10.3082 375.318Z" fill="#45DA6E"/>
<path d="M18.8665 378.521C18.8888 378.491 18.91 378.46 18.9286 378.427C18.91 378.46 18.8891 378.491 18.8665 378.521Z" fill="#45DA6E"/>
<path d="M18.9338 378.414C18.9535 378.377 18.9712 378.34 18.986 378.302C18.971 378.34 18.9537 378.377 18.9338 378.414Z" fill="#45DA6E"/>
<path d="M13.0469 373.193C12.9651 373.181 12.8828 373.179 12.8022 373.189C12.8829 373.18 12.9652 373.181 13.0469 373.193Z" fill="#45DA6E"/>
<path d="M15.9946 374.14C15.9946 374.14 15.9927 374.138 15.9918 374.138C15.9927 374.138 15.9937 374.139 15.9946 374.14Z" fill="#45DA6E"/>
<path d="M9.33734 380.535L10.9426 379.001C10.9713 379.035 11.0024 379.066 11.0357 379.096C11.0366 379.097 11.0375 379.097 11.0383 379.099C11.069 379.126 11.1022 379.151 11.1363 379.174C11.1404 379.177 11.1441 379.18 11.1485 379.182C11.1798 379.203 11.2129 379.221 11.247 379.237C11.2542 379.241 11.2609 379.245 11.2681 379.248C11.3086 379.267 11.3503 379.283 11.3938 379.296L13.8608 380.016C14.0218 380.063 14.1894 380.066 14.347 380.027L14.8735 382.184C14.7159 382.223 14.5483 382.22 14.3873 382.173L9.78836 380.83C9.74491 380.817 9.70315 380.801 9.66269 380.783C9.65546 380.779 9.64877 380.775 9.64154 380.772C9.60773 380.755 9.57457 380.737 9.54304 380.717C9.53894 380.714 9.53496 380.711 9.53086 380.708C9.49668 380.685 9.46379 380.66 9.43305 380.633C9.43207 380.632 9.43115 380.631 9.43017 380.63C9.42544 380.626 9.42153 380.621 9.41703 380.617C9.38907 380.591 9.3621 380.564 9.33734 380.535Z" fill="#45DA6E"/>
<path d="M15.3006 381.951C15.1793 382.067 15.0317 382.146 14.874 382.184L14.3475 380.027C14.5052 379.989 14.6528 379.909 14.7741 379.793L16.6318 378.018C16.6645 377.987 16.6942 377.953 16.7216 377.918C16.7264 377.912 16.7304 377.905 16.7352 377.898C16.7576 377.868 16.779 377.837 16.7974 377.804C16.7998 377.8 16.8019 377.796 16.8043 377.791C16.824 377.755 16.8419 377.718 16.8566 377.679C16.8571 377.678 16.8576 377.677 16.8577 377.676C16.8734 377.634 16.8864 377.592 16.8965 377.549L19.0283 378.171C19.0184 378.215 19.0054 378.257 18.9897 378.299C18.9893 378.3 18.9888 378.301 18.9884 378.302C18.9737 378.341 18.956 378.378 18.9363 378.414C18.9339 378.418 18.9318 378.423 18.9294 378.427C18.911 378.46 18.8899 378.491 18.8673 378.522C18.8624 378.528 18.8585 378.535 18.8536 378.541C18.8263 378.576 18.7966 378.61 18.7639 378.641L15.3006 381.951Z" fill="#45DA6E"/>
<path d="M12.6833 373.209C12.6438 373.218 12.6052 373.231 12.5673 373.245C12.4535 373.289 12.3477 373.356 12.2568 373.442L10.399 375.218C10.3663 375.249 10.3366 375.283 10.3093 375.318C10.3044 375.324 10.3002 375.331 10.2954 375.338C10.2731 375.368 10.2519 375.399 10.2335 375.432C10.2311 375.436 10.2291 375.441 10.2267 375.445C10.207 375.481 10.1893 375.519 10.1743 375.557C10.1738 375.558 10.1734 375.559 10.1729 375.56C10.1572 375.602 10.1442 375.644 10.1341 375.688L8.00243 375.065C8.01258 375.022 8.02505 374.979 8.04099 374.938C8.04141 374.936 8.04188 374.935 8.04229 374.934C8.04188 374.935 8.04141 374.936 8.04099 374.938C8.02529 374.979 8.01224 375.022 8.00237 375.065C8.01224 375.022 8.02523 374.979 8.04099 374.938C8.04141 374.936 8.04188 374.935 8.04229 374.934C8.05705 374.896 8.07477 374.858 8.09444 374.822C8.09684 374.818 8.0989 374.813 8.1013 374.809C8.11968 374.776 8.14089 374.745 8.1632 374.715C8.16799 374.708 8.17197 374.701 8.17705 374.695C8.20443 374.66 8.23412 374.627 8.26681 374.595L11.73 371.285C11.821 371.198 11.9268 371.132 12.0405 371.088C12.0785 371.073 12.1171 371.061 12.1566 371.052L12.6831 373.209L12.6833 373.209Z" fill="#45DA6E"/>
<path d="M17.5985 372.606C17.6316 372.635 17.6626 372.667 17.6913 372.701L16.0859 374.235C16.0572 374.201 16.0261 374.17 15.9928 374.14C15.9919 374.139 15.9909 374.138 15.99 374.138C15.9593 374.111 15.9264 374.086 15.8919 374.063C15.8878 374.06 15.8839 374.057 15.8798 374.054C15.8485 374.034 15.8154 374.016 15.7815 373.999C15.7742 373.995 15.7675 373.991 15.7601 373.988C15.7197 373.969 15.6778 373.953 15.6344 373.94L15.1659 373.804L15.4307 372.159L13.576 373.339L13.1674 373.22C13.1271 373.208 13.0863 373.199 13.0457 373.193C12.9639 373.18 12.8816 373.179 12.8009 373.188C12.7605 373.192 12.7206 373.199 12.6812 373.209L12.1546 371.052C12.2728 371.023 12.3966 371.017 12.5192 371.036C12.56 371.042 12.6006 371.051 12.6409 371.063L17.2403 372.406C17.2838 372.419 17.3256 372.435 17.366 372.453C17.3732 372.457 17.3802 372.461 17.3875 372.465C17.4213 372.481 17.4544 372.499 17.4857 372.519C17.4898 372.522 17.4938 372.525 17.4979 372.528C17.5321 372.551 17.5649 372.576 17.5957 372.603C17.5967 372.604 17.5976 372.605 17.5986 372.606L17.5985 372.606Z" fill="#45DA6E"/>
<path d="M10.1325 375.688C10.1247 375.722 10.1185 375.757 10.1143 375.792C10.1141 375.794 10.1141 375.796 10.1138 375.798C10.1103 375.831 10.1082 375.864 10.108 375.897C10.1079 375.908 10.1089 375.919 10.1094 375.93C10.1102 375.956 10.1109 375.981 10.1137 376.006C10.118 376.044 10.1242 376.082 10.1334 376.119L10.7428 378.616C10.752 378.654 10.7639 378.69 10.7775 378.726C10.7864 378.75 10.7973 378.772 10.8082 378.794C10.8132 378.805 10.8175 378.816 10.8227 378.826C10.8381 378.854 10.8548 378.883 10.873 378.91C10.8743 378.912 10.8755 378.914 10.877 378.916C10.8969 378.945 10.918 378.973 10.9408 379L10.9409 379.001L9.33563 380.535C9.33563 380.535 9.33465 380.534 9.33431 380.533C9.33154 380.53 9.32878 380.527 9.32602 380.524C9.30057 380.493 9.27763 380.46 9.25615 380.427C9.25178 380.42 9.24718 380.413 9.24299 380.406C9.22428 380.375 9.20794 380.342 9.19307 380.308C9.18883 380.299 9.18401 380.291 9.18018 380.281C9.16303 380.239 9.14827 380.195 9.13733 380.151L8.00151 375.497C7.99052 375.452 7.98365 375.407 7.97944 375.361C7.97846 375.351 7.97874 375.341 7.97828 375.331C7.97617 375.294 7.97551 375.257 7.97768 375.221C7.97819 375.213 7.97905 375.205 7.97979 375.197C7.98326 375.157 7.98876 375.117 7.99738 375.078C7.99822 375.074 7.99899 375.071 7.99982 375.067C8.00012 375.066 8.00041 375.065 8.00047 375.065L10.1322 375.687L10.1325 375.688Z" fill="#45DA6E"/>
<path d="M8.00236 375.065C8.01223 375.022 8.02522 374.979 8.04098 374.938C8.02499 374.979 8.01252 375.022 8.00242 375.065L8.00236 375.065Z" fill="#45DA6E"/>
<path d="M9.33623 380.535C9.36099 380.564 9.38772 380.59 9.41592 380.616C9.42036 380.62 9.42427 380.625 9.42871 380.629C9.39573 380.6 9.3649 380.568 9.33629 380.535L9.33623 380.535Z" fill="#45DA6E"/>
<path d="M8.04047 374.934C8.04047 374.934 8.03958 374.936 8.03917 374.938L8.04047 374.934Z" fill="#45DA6E"/>
</g>
<g clip-path="url(#clip4_5859_12492)">
<path d="M24.6244 76.599C24.7818 76.5596 24.9336 76.5087 25.0812 76.4477C24.9339 76.5079 24.7818 76.5596 24.6244 76.599Z" fill="#45DA6E"/>
<path d="M24.0546 59.6797C24.0929 59.5463 24.121 59.411 24.1421 59.2754C24.121 59.411 24.0931 59.5455 24.0546 59.6797Z" fill="#45DA6E"/>
<path d="M24.0013 57.6698C24.0013 57.6698 23.9983 57.6618 23.9978 57.6572C23.9993 57.6612 24.0009 57.6652 24.0013 57.6698Z" fill="#45DA6E"/>
<path d="M4.21116 51.2333C4.1848 51.2444 4.1602 51.2588 4.13383 51.2699C4.1602 51.2588 4.1848 51.2444 4.21116 51.2333Z" fill="#45DA6E"/>
<path d="M23.5935 56.8545C23.5771 56.8311 23.5638 56.8059 23.5474 56.7825C23.5638 56.8059 23.5773 56.8303 23.5935 56.8545Z" fill="#45DA6E"/>
<path d="M23.8254 57.2475C23.8174 57.2318 23.8113 57.2158 23.8025 57.2C23.8105 57.2156 23.8174 57.2318 23.8254 57.2475Z" fill="#45DA6E"/>
<path d="M24.1723 58.5336C24.1722 58.5246 24.1718 58.5165 24.1709 58.5073C24.1721 58.5157 24.1714 58.5244 24.1723 58.5336Z" fill="#45DA6E"/>
<path d="M20.9934 69.5854C20.9977 69.5796 21.0012 69.5734 21.0056 69.5676C21.0012 69.5734 20.9977 69.5796 20.9934 69.5854Z" fill="#45DA6E"/>
<path d="M24.1697 59.0094C24.1726 58.9683 24.1781 58.9272 24.1799 58.8867C24.179 58.9274 24.1726 58.9683 24.1697 59.0094Z" fill="#45DA6E"/>
<path d="M21.2025 69.2708C21.2219 69.2372 21.2386 69.201 21.2566 69.166C21.2377 69.2007 21.2222 69.2363 21.2025 69.2708Z" fill="#45DA6E"/>
<path d="M21.3786 68.9211C21.4316 68.7956 21.4798 68.6678 21.518 68.5344C21.4798 68.6678 21.4324 68.7958 21.3786 68.9211Z" fill="#45DA6E"/>
<path d="M31.8467 56.2078L31.8483 56.2145C31.8483 56.2145 31.8468 56.2105 31.8467 56.2078Z" fill="#45DA6E"/>
<path d="M25.1584 76.4092C25.2818 76.3547 25.4029 76.2959 25.5182 76.2265C25.4023 76.2948 25.2826 76.3549 25.1584 76.4092Z" fill="#45DA6E"/>
<path d="M26.282 75.6069L20.7527 69.8809L26.282 75.6069Z" fill="#45DA6E"/>
<path d="M31.7254 55.7463C31.7324 55.7688 31.7352 55.7901 31.7415 55.8115C31.7352 55.7901 31.7318 55.7677 31.7246 55.7461L31.7254 55.7463Z" fill="#45DA6E"/>
<path d="M8.83911 73.1597C8.69478 73.1378 8.55306 73.107 8.41311 73.0668C8.27315 73.0267 8.13662 72.9777 8.00269 72.9197C8.26973 73.0355 8.55129 73.1163 8.83911 73.1597Z" fill="#45DA6E"/>
<path d="M3.77252 51.4538C3.75746 51.4628 3.74298 51.4729 3.72791 51.482C3.74298 51.4729 3.75663 51.4626 3.77252 51.4538Z" fill="#45DA6E"/>
<path d="M19.0371 42.1355C18.6186 41.7027 18.1012 41.3975 17.5422 41.2371C16.9832 41.0767 16.3827 41.0612 15.7993 41.2065L-0.862936 45.3562C-1.02037 45.3956 -1.17218 45.4465 -1.31975 45.5075C-1.17241 45.4473 -1.02037 45.3956 -0.862936 45.3562L15.7993 41.2065C16.9671 40.9153 18.2012 41.2694 19.0371 42.1355L30.9662 54.4885C31.0788 54.6054 31.1803 54.7299 31.2734 54.859C31.1806 54.729 31.0788 54.6054 30.9662 54.4885L19.0371 42.1355Z" fill="#45DA6E"/>
<path d="M3.36572 51.737C3.36572 51.737 3.35889 51.7422 3.35606 51.7458C3.35948 51.7432 3.36289 51.7406 3.36572 51.737Z" fill="#45DA6E"/>
<path d="M3.01083 52.0737C2.66156 52.4527 2.39255 52.9091 2.24548 53.4219L-0.293396 62.2741C-0.440465 62.7869 -0.454029 63.3157 -0.358991 63.8231L-8.08335 65.7473C-8.05421 65.9036 -8.01353 66.0569 -7.96321 66.2076C-8.17988 65.5682 -8.21015 64.8691 -8.01775 64.1983L-3.28442 47.6948C-3.09202 47.024 -2.69585 46.4473 -2.17325 46.02C-2.2958 46.1211 -2.41178 46.2304 -2.5193 46.3474L3.0106 52.0745L3.01083 52.0737Z" fill="#45DA6E"/>
<path d="M26.2816 75.6073C26.2816 75.6073 26.2864 75.6033 26.2881 75.6003C26.1791 75.7195 26.0616 75.831 25.9358 75.9339C26.0584 75.8328 26.1741 75.7243 26.2816 75.6073Z" fill="#45DA6E"/>
<path d="M31.9009 56.6843C31.8938 56.5415 31.8804 56.3987 31.8555 56.2588C31.8793 56.3993 31.8948 56.5409 31.9009 56.6843Z" fill="#45DA6E"/>
<path d="M20.3944 70.2158C20.3944 70.2158 20.4015 70.2098 20.4049 70.2072C20.4015 70.2098 20.3978 70.2132 20.3944 70.2158Z" fill="#45DA6E"/>
<path d="M31.886 57.1644C31.8986 57.0335 31.9069 56.9023 31.9043 56.7715C31.9069 56.9023 31.8997 57.033 31.886 57.1644Z" fill="#45DA6E"/>
<path d="M31.5274 55.2751C31.4662 55.156 31.395 55.0411 31.3184 54.9292C31.395 55.0411 31.4654 55.1558 31.5274 55.2751Z" fill="#45DA6E"/>
<path d="M31.7223 55.7322C31.6749 55.593 31.6168 55.457 31.5515 55.3242C31.6176 55.4572 31.6749 55.593 31.7223 55.7322Z" fill="#45DA6E"/>
<path d="M31.8466 56.2067C31.8172 56.0513 31.7765 55.898 31.7268 55.7483C31.7774 55.8982 31.8172 56.0513 31.8466 56.2067Z" fill="#45DA6E"/>
<path d="M26.3158 75.569C26.4124 75.4622 26.5005 75.3477 26.5827 75.2287C26.5013 75.3479 26.4118 75.4612 26.3158 75.569Z" fill="#45DA6E"/>
<path d="M25.5631 76.1991C25.6888 76.1212 25.8099 76.0375 25.9241 75.9437C25.8093 76.0364 25.6896 76.1214 25.5631 76.1991Z" fill="#45DA6E"/>
<path d="M27.0471 74.2599C27.0013 74.4196 26.9422 74.5728 26.8745 74.7217C26.9419 74.5736 27.0013 74.4196 27.0471 74.2599Z" fill="#45DA6E"/>
<path d="M26.6311 75.1606C26.7028 75.0502 26.7662 74.9348 26.8251 74.8163C26.767 74.935 26.7028 75.0502 26.6311 75.1606Z" fill="#45DA6E"/>
<path d="M31.7797 57.7546C31.8255 57.5949 31.8566 57.4337 31.8777 57.2732C31.8564 57.4345 31.8253 57.5958 31.7797 57.7546Z" fill="#45DA6E"/>
<path d="M0.167236 65.0999C0.183683 65.1233 0.196716 65.1493 0.213986 65.173C0.197539 65.1495 0.183447 65.1241 0.167236 65.0999Z" fill="#45DA6E"/>
<path d="M19.9891 70.5011C20.0042 70.492 20.0189 70.4811 20.034 70.4721C20.0189 70.4811 20.0042 70.492 19.9891 70.5011Z" fill="#45DA6E"/>
<path d="M19.5516 70.7197C19.5788 70.7088 19.6034 70.6945 19.6299 70.6825C19.6034 70.6945 19.5788 70.7088 19.5516 70.7197Z" fill="#45DA6E"/>
<path d="M7.25024 72.4692C7.48252 72.6535 7.73589 72.8046 8.00317 72.9196C7.73612 72.8037 7.48276 72.6526 7.25024 72.4692Z" fill="#45DA6E"/>
<path d="M31.846 56.2066L24.1227 58.1302C24.0936 57.974 24.0531 57.8198 24.002 57.6689C24.0004 57.6649 23.9989 57.6609 23.9985 57.6563C23.9513 57.5163 23.8924 57.38 23.8271 57.2472C23.8191 57.2316 23.813 57.2156 23.8042 57.1997C23.743 57.0806 23.6717 56.9657 23.5951 56.8537C23.5787 56.8303 23.5654 56.8051 23.549 56.7817C23.4562 56.6517 23.3544 56.5281 23.2418 56.4112L16.8428 49.7845C16.4252 49.352 15.9077 49.0467 15.3487 48.8863L17.543 41.2358C18.102 41.3962 18.6194 41.7015 19.0371 42.134L30.9662 54.487C31.0788 54.6039 31.1805 54.7275 31.2733 54.8575C31.2898 54.8809 31.303 54.9061 31.3195 54.9295C31.3953 55.0412 31.4666 55.1561 31.5286 55.2755C31.5365 55.2911 31.5432 55.3082 31.5512 55.3238C31.6165 55.4566 31.6746 55.5926 31.722 55.7318C31.7233 55.7366 31.7248 55.7406 31.7261 55.7455C31.7332 55.7671 31.7366 55.7895 31.743 55.8109C31.784 55.9411 31.8202 56.0727 31.846 56.2066Z" fill="#45DA6E"/>
<path d="M15.8002 41.2053C16.3836 41.06 16.9842 41.0755 17.5431 41.2359L15.3489 48.8864C14.7899 48.726 14.1894 48.7105 13.606 48.8558L4.66791 51.0821C4.51048 51.1215 4.35867 51.1724 4.2111 51.2334C4.18473 51.2445 4.16037 51.258 4.13377 51.27C4.01032 51.3246 3.88815 51.3839 3.77315 51.4525C3.75809 51.4615 3.74361 51.4716 3.72854 51.4807C3.60283 51.5586 3.48064 51.6429 3.36644 51.7367C3.36303 51.7392 3.35961 51.7418 3.35678 51.7455C3.23423 51.8466 3.11825 51.9559 3.00991 52.0726L-2.51917 46.3458C-2.41165 46.2288 -2.29567 46.1195 -2.17311 46.0184C-2.16946 46.015 -2.16605 46.0124 -2.1624 46.009C-2.04844 45.9161 -1.92707 45.8315 -1.80136 45.7536C-1.78629 45.7445 -1.77158 45.7336 -1.75651 45.7246C-1.64151 45.656 -1.52017 45.5964 -1.39589 45.5421C-1.36953 45.531 -1.34493 45.5166 -1.31857 45.5055C-1.17099 45.4445 -1.01919 45.3936 -0.861747 45.3542L15.8002 41.2053Z" fill="#45DA6E"/>
<path d="M8.41304 73.0669C8.55299 73.1071 8.69472 73.138 8.83904 73.1598C9.27118 73.225 9.71846 73.2063 10.1559 73.0976L19.094 70.8713C19.2515 70.8318 19.4033 70.781 19.5509 70.72C19.5772 70.7088 19.6026 70.6947 19.6292 70.6828C19.7527 70.6282 19.8738 70.5694 19.989 70.5C20.0041 70.491 20.0188 70.4801 20.0339 70.471C20.1596 70.3931 20.281 70.3085 20.3957 70.2159C20.3992 70.2133 20.4028 70.2099 20.4062 70.2073C20.5288 70.1062 20.6448 69.9969 20.7531 69.8801L26.2824 75.6062C26.1743 75.7221 26.0597 75.8327 25.9364 75.9336C25.9327 75.937 25.9293 75.9396 25.9256 75.943C25.9293 75.9396 25.9327 75.937 25.9364 75.9336C26.0589 75.8324 26.1747 75.724 26.2822 75.607C26.1747 75.724 26.0587 75.8333 25.9364 75.9336C25.9327 75.937 25.9293 75.9396 25.9256 75.943C25.8117 76.0359 25.6903 76.1204 25.5646 76.1984C25.5495 76.2074 25.5348 76.2183 25.5198 76.2274C25.4048 76.2959 25.2837 76.3547 25.16 76.4101C25.1334 76.4221 25.1088 76.4364 25.0816 76.4473C24.9342 76.5075 24.7822 76.5591 24.6248 76.5986L7.96255 80.7483C7.52506 80.857 7.07778 80.8757 6.64564 80.8105C6.50132 80.7887 6.35959 80.7578 6.21964 80.7177L8.41386 73.0672L8.41304 73.0669Z" fill="#45DA6E"/>
<path d="M-7.96391 66.2071C-8.01423 66.0563 -8.0549 65.903 -8.08405 65.7468L-0.359688 63.8226C-0.330545 63.9788 -0.290108 64.1329 -0.238962 64.2839C-0.237437 64.2879 -0.236147 64.2927 -0.234621 64.2967C-0.187228 64.4359 -0.129128 64.572 -0.0630241 64.705C-0.0550396 64.7206 -0.0483504 64.7377 -0.0403658 64.7533C0.0208102 64.8724 0.0923429 64.9865 0.167877 65.099C0.184088 65.1233 0.197357 65.1485 0.214627 65.1721C0.307674 65.3013 0.409195 65.4257 0.521781 65.5426L1.73708 66.8008L-2.00875 71.4486L5.86082 71.0715L6.92076 72.1694C7.02512 72.2777 7.13619 72.3782 7.25151 72.47C7.48378 72.6543 7.73715 72.8054 8.00444 72.9204C8.13837 72.9784 8.2749 73.0274 8.41485 73.0675L6.22063 80.718C5.8016 80.5978 5.40594 80.3961 5.05728 80.1205C4.94114 80.0284 4.8309 79.9282 4.72654 79.8199L-7.20399 67.4656C-7.31657 67.3486 -7.41833 67.225 -7.51114 67.0951C-7.52759 67.0716 -7.54168 67.0462 -7.55789 67.022C-7.63366 66.9103 -7.70519 66.7962 -7.76613 66.6763C-7.77412 66.6606 -7.78081 66.6436 -7.78879 66.6279C-7.85407 66.4951 -7.91241 66.3599 -7.95957 66.2199C-7.96086 66.2151 -7.96238 66.2111 -7.96367 66.2063L-7.96391 66.2071Z" fill="#45DA6E"/>
<path d="M20.7519 69.8797C20.8377 69.7858 20.9192 69.688 20.9948 69.5859C20.9991 69.58 21.0027 69.5739 21.007 69.568C21.0764 69.4721 21.1413 69.3732 21.2012 69.2701C21.2206 69.2365 21.2372 69.2003 21.2553 69.1654C21.2979 69.085 21.3406 69.0045 21.3772 68.9206C21.4309 68.7953 21.4783 68.6673 21.5166 68.5339L24.0562 59.6793C24.0946 59.5451 24.1225 59.4106 24.1436 59.275C24.1574 59.1863 24.1634 59.0972 24.1694 59.008C24.1722 58.967 24.1778 58.9258 24.1796 58.8853C24.183 58.7678 24.181 58.6506 24.1728 58.5333C24.1727 58.5243 24.1723 58.5162 24.1714 58.5071C24.1612 58.3812 24.1455 58.2555 24.1221 58.1321L24.1226 58.1305L31.8459 56.2068C31.8459 56.2068 31.8472 56.2117 31.8475 56.2136C31.8503 56.2286 31.8531 56.2437 31.8559 56.2587C31.8806 56.3994 31.8943 56.5414 31.9014 56.6842C31.9029 56.7132 31.9052 56.7423 31.9057 56.7719C31.9083 56.9027 31.9011 57.0333 31.8874 57.1648C31.8841 57.2013 31.8837 57.2368 31.8785 57.2736C31.8572 57.4349 31.8261 57.5962 31.7805 57.755L27.0469 74.2594C27.0011 74.419 26.9421 74.5722 26.8744 74.7212C26.8595 74.7543 26.841 74.7846 26.8248 74.8165C26.7658 74.935 26.7022 75.0513 26.6307 75.1608C26.6149 75.1848 26.5988 75.2069 26.5822 75.2306C26.4999 75.3495 26.4118 75.4641 26.3153 75.5709C26.3062 75.5808 26.2969 75.5915 26.2878 75.6014C26.2855 75.6034 26.2831 75.6053 26.2816 75.6076L20.7523 69.8816L20.7519 69.8797Z" fill="#45DA6E"/>
<path d="M26.2816 75.6067C26.1741 75.7238 26.0581 75.833 25.9358 75.9333C26.0589 75.8332 26.1735 75.7227 26.2818 75.6059L26.2816 75.6067Z" fill="#45DA6E"/>
<path d="M31.8464 56.2075C31.8206 56.0736 31.7852 55.9423 31.7433 55.8118C31.7368 55.7912 31.7334 55.7689 31.7268 55.7483C31.7774 55.8982 31.8172 56.0513 31.8466 56.2067L31.8464 56.2075Z" fill="#45DA6E"/>
<path d="M25.9257 75.9434C25.9257 75.9434 25.9327 75.9374 25.9364 75.934L25.9257 75.9434Z" fill="#45DA6E"/>
</g>
<g clip-path="url(#clip5_5859_12492)">
<path d="M387.563 369.968C387.482 369.953 387.4 369.944 387.318 369.939C387.4 369.944 387.482 369.953 387.563 369.968Z" fill="#45DA6E"/>
<path d="M386.373 370.114C386.373 370.114 386.369 370.116 386.366 370.116C386.368 370.115 386.371 370.114 386.373 370.114Z" fill="#45DA6E"/>
<path d="M383.672 382.231C383.68 382.246 383.69 382.26 383.698 382.275C383.69 382.26 383.68 382.246 383.672 382.231Z" fill="#45DA6E"/>
<path d="M385.911 370.401C385.898 370.412 385.884 370.422 385.871 370.433C385.884 370.422 385.898 370.412 385.911 370.401Z" fill="#45DA6E"/>
<path d="M386.133 370.242C386.125 370.248 386.115 370.252 386.106 370.258C386.115 370.253 386.125 370.248 386.133 370.242Z" fill="#45DA6E"/>
<path d="M386.877 369.963C386.871 369.964 386.866 369.964 386.861 369.965C386.866 369.964 386.871 369.964 386.877 369.963Z" fill="#45DA6E"/>
<path d="M387.159 369.938C387.134 369.938 387.109 369.938 387.085 369.939C387.109 369.937 387.134 369.938 387.159 369.938Z" fill="#45DA6E"/>
<path d="M385.061 365.537L385.065 365.536C385.065 365.536 385.062 365.537 385.061 365.537Z" fill="#45DA6E"/>
<path d="M384.792 365.635C384.805 365.63 384.818 365.627 384.83 365.622C384.818 365.627 384.805 365.63 384.792 365.636L384.792 365.635Z" fill="#45DA6E"/>
<path d="M383.826 382.478C383.832 382.487 383.839 382.495 383.845 382.503C383.839 382.495 383.832 382.487 383.826 382.478Z" fill="#45DA6E"/>
<path d="M377.428 373.94C377.195 374.213 377.043 374.537 376.979 374.878C376.916 375.219 376.941 375.577 377.06 375.915L380.468 385.576C380.5 385.668 380.539 385.755 380.583 385.839C380.539 385.755 380.5 385.668 380.468 385.576L377.06 375.915C376.821 375.238 376.961 374.485 377.428 373.94L384.088 366.157C384.151 366.084 384.219 366.016 384.291 365.954C384.219 366.016 384.151 366.084 384.088 366.157L377.428 373.94Z" fill="#45DA6E"/>
<path d="M384.018 382.705C384.018 382.705 384.022 382.708 384.024 382.71C384.022 382.708 384.021 382.706 384.018 382.705Z" fill="#45DA6E"/>
<path d="M384.238 382.896C384.483 383.083 384.769 383.216 385.082 383.275L390.482 384.282C390.795 384.341 391.11 384.319 391.406 384.234L392.986 388.713C393.077 388.686 393.166 388.654 393.253 388.615C392.885 388.78 392.472 388.838 392.062 388.761L381.994 386.883C381.585 386.806 381.22 386.604 380.936 386.317C381.003 386.384 381.075 386.447 381.15 386.504L384.238 382.897L384.238 382.896Z" fill="#45DA6E"/>
<path d="M385.34 365.478C385.256 365.491 385.171 365.507 385.09 365.529C385.172 365.507 385.255 365.49 385.34 365.478Z" fill="#45DA6E"/>
<path d="M385.626 365.459C385.548 365.459 385.469 365.462 385.392 365.47C385.469 365.462 385.547 365.458 385.626 365.459Z" fill="#45DA6E"/>
<path d="M384.526 365.78C384.459 365.823 384.395 365.872 384.333 365.923C384.395 365.872 384.459 365.823 384.526 365.78Z" fill="#45DA6E"/>
<path d="M384.785 365.639C384.705 365.675 384.628 365.717 384.552 365.763C384.628 365.717 384.705 365.675 384.785 365.639Z" fill="#45DA6E"/>
<path d="M385.06 365.538C384.969 365.564 384.88 365.597 384.794 365.635C384.881 365.596 384.969 365.564 385.06 365.538Z" fill="#45DA6E"/>
<path d="M385.983 365.489C385.885 365.471 385.788 365.462 385.691 365.458C385.788 365.462 385.886 365.471 385.983 365.489Z" fill="#45DA6E"/>
<path d="M380.61 385.883C380.649 385.953 380.691 386.022 380.738 386.087C380.691 386.022 380.649 385.954 380.61 385.883Z" fill="#45DA6E"/>
<path d="M380.758 386.111C380.812 386.181 380.869 386.249 380.93 386.311C380.869 386.248 380.812 386.182 380.758 386.111Z" fill="#45DA6E"/>
<path d="M385.059 365.538L386.639 370.016C386.548 370.042 386.459 370.075 386.372 370.114C386.37 370.115 386.367 370.116 386.365 370.117C386.284 370.153 386.206 370.196 386.131 370.242C386.123 370.247 386.113 370.252 386.104 370.258C386.037 370.301 385.973 370.35 385.911 370.402C385.898 370.413 385.884 370.422 385.871 370.433C385.799 370.496 385.731 370.563 385.668 370.637L382.095 374.811C381.862 375.084 381.71 375.408 381.646 375.749L376.979 374.879C377.043 374.538 377.195 374.213 377.428 373.941L384.088 366.158C384.151 366.084 384.219 366.017 384.291 365.955C384.303 365.943 384.318 365.934 384.331 365.923C384.393 365.872 384.457 365.823 384.524 365.779C384.533 365.774 384.543 365.769 384.552 365.763C384.627 365.717 384.704 365.675 384.784 365.639C384.787 365.638 384.789 365.637 384.792 365.635C384.805 365.63 384.818 365.627 384.83 365.622C384.905 365.59 384.981 365.561 385.059 365.538Z" fill="#45DA6E"/>
<path d="M377.061 375.916C376.941 375.577 376.917 375.22 376.98 374.879L381.648 375.75C381.584 376.091 381.609 376.448 381.728 376.786L383.556 381.969C383.589 382.06 383.628 382.148 383.672 382.232C383.68 382.247 383.69 382.26 383.698 382.276C383.738 382.346 383.78 382.415 383.827 382.479C383.833 382.488 383.84 382.496 383.846 382.504C383.9 382.575 383.957 382.642 384.019 382.705C384.021 382.707 384.022 382.709 384.025 382.71C384.092 382.777 384.163 382.84 384.239 382.898L381.151 386.505C381.075 386.448 381.004 386.385 380.937 386.318C380.935 386.316 380.933 386.314 380.931 386.312C380.869 386.25 380.812 386.182 380.758 386.112C380.752 386.104 380.745 386.096 380.739 386.087C380.691 386.023 380.649 385.954 380.61 385.883C380.602 385.868 380.592 385.854 380.584 385.839C380.539 385.755 380.5 385.668 380.468 385.577L377.061 375.916Z" fill="#45DA6E"/>
<path d="M393.808 371.354C393.747 371.308 393.684 371.266 393.62 371.226C393.616 371.224 393.612 371.222 393.608 371.22C393.547 371.184 393.485 371.151 393.42 371.122C393.399 371.112 393.377 371.104 393.355 371.095C393.305 371.075 393.255 371.054 393.203 371.037C393.125 371.012 393.047 370.991 392.965 370.976L387.563 369.968C387.481 369.953 387.4 369.944 387.318 369.939C387.265 369.936 387.211 369.937 387.158 369.939C387.134 369.939 387.109 369.938 387.085 369.94C387.015 369.944 386.945 369.952 386.876 369.964C386.871 369.964 386.866 369.965 386.861 369.966C386.786 369.979 386.713 369.995 386.641 370.016L386.64 370.016L385.06 365.538C385.06 365.538 385.063 365.537 385.064 365.537C385.073 365.534 385.081 365.532 385.09 365.529C385.172 365.507 385.256 365.49 385.34 365.478C385.357 365.476 385.375 365.473 385.392 365.471C385.47 365.462 385.548 365.459 385.627 365.459C385.648 365.459 385.669 365.457 385.692 365.458C385.789 365.462 385.886 365.471 385.983 365.489L396.052 367.368C396.15 367.386 396.244 367.413 396.336 367.444C396.357 367.451 396.376 367.461 396.396 367.468C396.469 367.497 396.542 367.528 396.611 367.564C396.626 367.572 396.64 367.581 396.655 367.589C396.73 367.631 396.804 367.677 396.872 367.728C396.879 367.733 396.886 367.738 396.892 367.743C396.893 367.744 396.895 367.746 396.896 367.746L393.809 371.354L393.808 371.354Z" fill="#45DA6E"/>
<path d="M385.06 365.538C384.982 365.561 384.906 365.589 384.831 365.621C384.819 365.626 384.806 365.63 384.794 365.635C384.881 365.596 384.969 365.564 385.06 365.538L385.06 365.538Z" fill="#45DA6E"/>
</g>
<defs>
<clipPath id="clip0_5859_12492">
<rect width="18.1137" height="20.3941" fill="white" transform="matrix(0.258758 0.965942 0.965909 -0.258881 235.778 6.6167)"/>
</clipPath>
<clipPath id="clip1_5859_12492">
<rect width="11.832" height="13.3221" fill="white" transform="matrix(0.370008 0.929028 0.928964 -0.370171 351.72 31.7544)"/>
</clipPath>
<clipPath id="clip2_5859_12492">
<rect width="21.4847" height="24.1897" fill="white" transform="matrix(-0.958027 -0.286677 0.286811 -0.957987 275.624 439.568)"/>
</clipPath>
<clipPath id="clip3_5859_12492">
<rect width="10.1777" height="11.4589" fill="white" transform="matrix(-0.97151 0.236997 -0.237111 -0.971482 19.8169 380.978)"/>
</clipPath>
<clipPath id="clip4_5859_12492">
<rect width="36.4801" height="41.0722" fill="white" transform="matrix(0.961218 0.275789 -0.275693 0.961246 0.00976562 36.2061)"/>
</clipPath>
<clipPath id="clip5_5859_12492">
<rect width="21.7623" height="24.5021" fill="white" transform="matrix(0.183284 -0.98306 0.983037 0.183409 374.986 385.575)"/>
</clipPath>
</defs>
</svg>
